<?xml version="1.0" standalone="no"?>
<!DOCTYPE svg PUBLIC "-//W3C//DTD SVG 1.1//EN" "http://www.w3.org/Graphics/SVG/1.1/DTD/svg11.dtd" >
<svg xmlns="http://www.w3.org/2000/svg">
<metadata>Generated by IcoMoon</metadata>
<defs>
<font id="Bstone" horiz-adv-x="1024">
<font-face units-per-em="1024" ascent="960" descent="-64" />
<missing-glyph horiz-adv-x="1024" />
<glyph unicode="&#x20;" horiz-adv-x="512" d="" />
<glyph unicode="&#xe235;" glyph-name="format-align-justify" d="M128 810.667h768v-86h-768v86zM128 554.667v86h768v-86h-768zM128 384.667v84h768v-84h-768zM128 212.667v86h768v-86h-768zM128 42.667v86h768v-86h-768z" />
<glyph unicode="&#xe25d;" glyph-name="drag-handle" d="M170 298.667v86h684v-86h-684zM854 554.667v-86h-684v86h684z" />
<glyph unicode="&#xe56b;" glyph-name="zoom-in" d="M896 298.667v-256h-256l98 98-124 122 62 62 122-124zM384 42.667h-256v256l98-98 122 124 62-62-124-122zM128 554.667v256h256l-98-98 124-122-62-62-122 124zM640 810.667h256v-256l-98 98-122-124-62 62 124 122z" />
<glyph unicode="&#xe5cd;" glyph-name="close" d="M810 664.667l-238-238 238-238-60-60-238 238-238-238-60 60 238 238-238 238 60 60 238-238 238 238z" />
<glyph unicode="&#xe5d2;" glyph-name="menu" d="M128 682.667h768v-86h-768v86zM128 384.667v84h768v-84h-768zM128 170.667v86h768v-86h-768z" />
<glyph unicode="&#xe8b6;" glyph-name="search1" d="M406 340.667c106 0 192 86 192 192s-86 192-192 192-192-86-192-192 86-192 192-192zM662 340.667l212-212-64-64-212 212v34l-12 12c-48-42-112-66-180-66-154 0-278 122-278 276s124 278 278 278 276-124 276-278c0-68-24-132-66-180l12-12h34z" />
<glyph unicode="&#xe8fe;" glyph-name="reorder" d="M128 724.667h768v-84h-768v84zM128 468.667v86h768v-86h-768zM128 128.667v84h768v-84h-768zM128 298.667v86h768v-86h-768z" />
<glyph unicode="&#xe900;" glyph-name="share" d="M192 256c-105.856 0-192 86.144-192 192s86.144 192 192 192c73.045 0 138.795-40.704 171.563-106.197l-38.187-19.072c-25.472 50.944-76.587 82.603-133.376 82.603-82.347 0-149.333-66.987-149.333-149.333s66.987-149.333 149.333-149.333c56.789 0 107.904 31.659 133.419 82.645l38.187-19.072c-32.853-65.536-98.603-106.24-171.605-106.24zM832 576v42.667c82.347 0 149.333 66.987 149.333 149.333s-66.987 149.333-149.333 149.333-149.333-66.987-149.333-149.333c0-23.125 5.333-45.568 15.872-66.731l-38.144-19.029c-13.568 27.093-20.395 55.979-20.395 85.76 0 105.856 86.144 192 192 192s192-86.144 192-192-86.144-192-192-192zM832-64c-66.987 0-128 34.048-163.2 91.093-35.243 57.088-38.357 126.891-8.405 186.709l38.187-19.072c-23.339-46.549-20.864-100.779 6.528-145.195 27.392-44.373 74.795-70.869 126.891-70.869 82.347 0 149.333 66.987 149.333 149.333s-66.987 149.333-149.333 149.333v42.667c105.856 0 192-86.144 192-192s-86.144-192-192-192zM679.467 182.912c-3.2 0-6.443 0.725-9.557 2.261l-334.976 167.509c-5.077 2.56-8.917 6.955-10.709 12.331s-1.365 11.264 1.152 16.299c10.624 21.077 15.957 43.52 15.957 66.688 0 23.253-5.333 45.696-15.915 66.688-2.56 5.077-2.987 10.923-1.195 16.299s5.632 9.813 10.709 12.373l334.976 167.509c10.624 5.205 23.296 0.981 28.629-9.515 25.557-51.029 76.672-82.688 133.461-82.688v-42.667c-65.877 0-125.824 33.109-161.024 87.637l-298.837-149.419c7.893-21.205 11.861-43.392 11.861-66.219 0-22.784-4.011-44.971-11.904-66.219l298.837-149.461c35.285 54.613 95.232 87.68 161.067 87.68v-42.667c-56.747 0-107.904-31.659-133.461-82.688-3.755-7.424-11.307-11.733-19.072-11.733z" />
<glyph unicode="&#xe901;" glyph-name="bst-arrow-up" d="M554.837 938.667v-981.333c0-11.776-9.557-21.333-21.333-21.333s-21.333 9.557-21.333 21.333v981.333c0 11.776 9.557 21.333 21.333 21.333s21.333-9.557 21.333-21.333zM1024.171 405.333c0-5.931-2.475-11.776-7.253-16-8.832-7.765-22.315-6.912-30.080 1.92l-453.333 515.115-453.333-515.115c-7.808-8.875-21.291-9.728-30.123-1.92-8.875 7.808-9.728 21.291-1.92 30.123l469.333 533.333c4.096 4.565 9.899 7.211 16.043 7.211s11.947-2.645 16-7.253l469.333-533.333c3.584-4.053 5.333-9.045 5.333-14.080z" />
<glyph unicode="&#xe902;" glyph-name="bst-arrow-down" d="M469.163-42.667v981.333c0 11.776 9.557 21.333 21.333 21.333s21.333-9.557 21.333-21.333v-981.333c0-11.776-9.557-21.333-21.333-21.333s-21.333 9.557-21.333 21.333zM-0.171 490.667c0 5.931 2.475 11.776 7.253 16 8.832 7.765 22.315 6.912 30.080-1.92l453.333-515.115 453.333 515.115c7.808 8.875 21.291 9.728 30.123 1.92 8.875-7.808 9.728-21.291 1.92-30.123l-469.333-533.333c-4.096-4.565-9.899-7.211-16.043-7.211s-11.947 2.645-16 7.253l-469.333 533.333c-3.584 4.053-5.333 9.045-5.333 14.080z" />
<glyph unicode="&#xe903;" glyph-name="bst-arrow-left" d="M21.333 490.837h981.333c11.776 0 21.333-9.557 21.333-21.333s-9.557-21.333-21.333-21.333h-981.333c-11.776 0-21.333 9.557-21.333 21.333s9.557 21.333 21.333 21.333zM554.667 960.171c5.931 0 11.776-2.475 16-7.253 7.765-8.832 6.912-22.315-1.92-30.080l-515.115-453.333 515.115-453.333c8.875-7.808 9.728-21.291 1.92-30.123-7.808-8.875-21.291-9.728-30.123-1.92l-533.333 469.333c-4.565 4.096-7.211 9.899-7.211 16.043s2.645 11.947 7.253 16l533.333 469.333c4.053 3.584 9.045 5.333 14.080 5.333z" />
<glyph unicode="&#xe904;" glyph-name="bst-arrow-right" d="M1002.667 405.163h-981.333c-11.776 0-21.333 9.557-21.333 21.333s9.557 21.333 21.333 21.333h981.333c11.776 0 21.333-9.557 21.333-21.333s-9.557-21.333-21.333-21.333zM469.333-64.171c-5.931 0-11.776 2.475-16 7.253-7.765 8.832-6.912 22.315 1.92 30.080l515.115 453.333-515.115 453.333c-8.875 7.808-9.728 21.291-1.92 30.123 7.808 8.875 21.291 9.728 30.123 1.92l533.333-469.333c4.565-4.096 7.211-9.899 7.211-16.043s-2.645-11.947-7.253-16l-533.333-469.333c-4.053-3.584-9.045-5.333-14.080-5.333z" />
<glyph unicode="&#xe905;" glyph-name="arrow-top" d="M261.12 698.88l250.88 250.88 250.88-250.88-53.76-53.76-161.28 161.28v-860.16h-71.68v860.16l-161.28-161.28-53.76 53.76z" />
<glyph unicode="&#xe906;" glyph-name="arrow-down" d="M762.88 197.12l-250.88-250.88-250.88 250.88 53.76 53.76 161.28-161.28v860.16h71.68v-860.16l161.28 161.28 53.76-53.76z" />
<glyph unicode="&#xe907;" glyph-name="arrow-left" d="M261.12 197.12l-250.88 250.88 250.88 250.88 53.76-53.76-161.28-161.28h860.16v-71.68h-860.16l161.28-161.28-53.76-53.76z" />
<glyph unicode="&#xe908;" glyph-name="arrow-right" d="M762.88 698.88l250.88-250.88-250.88-250.88-53.76 53.76 161.28 161.28h-860.16v71.68h860.16l-161.28 161.28 53.76 53.76z" />
<glyph unicode="&#xe909;" glyph-name="left-arrow" d="M728.013-2.878c12.701 12.701 12.701 33.34 0 46.040l-405.631 404.837 405.631 405.631c12.701 12.701 12.701 33.34 0 46.040s-33.34 12.701-46.040 0l-427.857-427.857c-6.35-6.35-9.526-14.288-9.526-23.020 0-7.938 3.175-16.67 9.526-23.020l427.857-427.857c12.701-13.495 33.34-13.495 46.040-0.794z" />
<glyph unicode="&#xe90a;" glyph-name="right-arrow" d="M295.987 898.878c-12.701-12.701-12.701-33.34 0-46.040l405.631-404.837-405.631-405.631c-12.701-12.701-12.701-33.34 0-46.040s33.34-12.701 46.040 0l427.857 427.857c6.35 6.35 9.526 14.288 9.526 23.020 0 7.938-3.175 16.67-9.526 23.020l-427.857 427.857c-12.701 13.495-33.34 13.495-46.040 0.794z" />
<glyph unicode="&#xe90b;" glyph-name="down-arrow" d="M962.878 664.013c-12.701 12.701-33.34 12.701-46.040 0l-404.837-405.631-405.631 405.631c-12.701 12.701-33.34 12.701-46.040 0s-12.701-33.34 0-46.040l427.857-427.857c6.35-6.35 14.288-9.526 23.020-9.526 7.938 0 16.67 3.175 23.020 9.526l427.857 427.857c13.495 12.701 13.495 33.34 0.794 46.040z" />
<glyph unicode="&#xe90c;" glyph-name="up-arrow" d="M61.122 231.987c12.701-12.701 33.34-12.701 46.040 0l404.837 405.631 405.631-405.631c12.701-12.701 33.34-12.701 46.040 0s12.701 33.34 0 46.040l-427.857 427.857c-6.35 6.35-14.288 9.526-23.020 9.526-7.938 0-16.67-3.175-23.020-9.526l-427.857-427.857c-13.495-12.701-13.495-33.34-0.794-46.040z" />
<glyph unicode="&#xe90d;" glyph-name="arrow-type-1-top" d="M512-64c282.765 0 512 229.235 512 512.004 0 282.765-229.235 511.996-512 511.996-282.769 0-512-229.231-512-512 0-282.765 229.231-512 512-512zM512 754.261l411.139-411.139-116.634-116.634-294.505 294.505-294.505-294.505-116.634 116.634 411.139 411.139z" />
<glyph unicode="&#xe90e;" glyph-name="arrow-type-1-bottom" d="M512-64c282.769 0 512 229.231 512 512s-229.227 512-512 512c-282.769 0-512-229.231-512-512s229.231-512 512-512zM217.495 669.512l294.505-294.505 294.505 294.505 116.634-116.634-411.139-411.139-411.139 411.139 116.634 116.634z" />
<glyph unicode="&#xe90f;" glyph-name="arrow-type-1-left" d="M512-64c282.773 0 512 229.235 512 512-0.004 282.769-229.231 512-512 512s-511.996-229.231-511.996-512c0-282.765 229.227-512 511.996-512zM616.878 857.052l116.638-116.634-294.505-294.505 294.505-294.505-116.638-116.634-411.135 411.139 411.135 411.139z" />
<glyph unicode="&#xe910;" glyph-name="arrow-type-1-right" d="M512-64c282.765 0 512 229.235 512 512 0 282.769-229.235 512-512 512-282.769 0-512-229.231-512-512 0-282.765 229.231-512 512-512zM290.484 744.591l116.638 116.634 411.139-411.139-411.139-411.139-116.638 116.634 294.505 294.501-294.505 294.509z" />
<glyph unicode="&#xe911;" glyph-name="arrow-type-2-top" d="M512 569.376l260.688-260.688 22.624 24.976-272 274.336h-22.624l-272-274.336 22.624-23.808zM511.984-64c0 0 0.016 0 0.032 0 136.768 0 265.328 53.28 362.032 149.968s149.952 225.28 149.936 362.048c0 136.768-53.248 265.344-149.952 362.032-96.688 96.688-225.248 149.952-362.016 149.952-0.016 0-0.016 0-0.032 0-136.768 0-265.328-53.264-362.032-149.968-96.688-96.704-149.952-225.28-149.936-362.048 0-136.768 53.248-265.344 149.952-362.032 96.688-96.688 225.248-149.952 362.016-149.952zM172.592 787.408c90.64 90.656 211.184 140.592 339.424 140.592 0.016 0 0.016 0 0.032 0 128.192 0 248.72-49.936 339.376-140.576 90.656-90.656 140.576-211.2 140.56-339.408 0-128.224-49.92-248.768-140.56-339.424s-211.184-140.592-339.408-140.592h-0.032c-0.016 0-0.016 0-0.032 0-128.192 0-248.72 49.936-339.376 140.576-90.64 90.656-140.576 211.184-140.56 339.408-0.016 128.224 49.92 248.768 140.576 339.424z" />
<glyph unicode="&#xe912;" glyph-name="arrow-type-2-bottom" d="M523.312 288l272 274.336-22.624 23.808-260.688-260.112-260.688 260.976-22.624-24.816 272-274.192zM511.984-64c0 0 0.016 0 0.032 0 136.768 0 265.328 53.28 362.032 149.968s149.952 225.28 149.936 362.048c0 136.768-53.248 265.344-149.952 362.032-96.688 96.688-225.248 149.952-362.016 149.952-0.016 0-0.016 0-0.032 0-136.768 0-265.328-53.264-362.032-149.968-96.688-96.704-149.952-225.28-149.936-362.048 0-136.768 53.248-265.344 149.952-362.032 96.688-96.688 225.248-149.952 362.016-149.952zM172.592 787.408c90.64 90.656 211.184 140.592 339.424 140.592 0.016 0 0.016 0 0.032 0 128.192 0 248.72-49.936 339.376-140.576 90.656-90.656 140.576-211.2 140.56-339.408 0-128.224-49.92-248.768-140.56-339.424s-211.184-140.592-339.408-140.592h-0.032c-0.016 0-0.016 0-0.032 0-128.192 0-248.72 49.936-339.376 140.576-90.64 90.656-140.576 211.184-140.56 339.408-0.016 128.224 49.92 248.768 140.576 339.424z" />
<glyph unicode="&#xe913;" glyph-name="arrow-type-2-left" d="M603.312 187.312l-260.688 260.688 260.688 260.688-24.976 22.624-274.336-272v-22.624l274.336-272zM511.984-64c0 0 0.016 0 0.032 0 136.768 0 265.328 53.28 362.032 149.968s149.952 225.28 149.936 362.048c0 136.768-53.248 265.344-149.952 362.032-96.688 96.688-225.248 149.952-362.016 149.952-0.016 0-0.016 0-0.032 0-136.768 0-265.328-53.264-362.032-149.968-96.688-96.704-149.952-225.28-149.936-362.048 0-136.768 53.248-265.344 149.952-362.032 96.688-96.688 225.248-149.952 362.016-149.952zM172.592 787.408c90.64 90.656 211.184 140.592 339.424 140.592 0.016 0 0.016 0 0.032 0 128.192 0 248.72-49.936 339.376-140.576 90.656-90.656 140.576-211.2 140.56-339.408 0-128.224-49.92-248.768-140.56-339.424s-211.184-140.592-339.408-140.592h-0.032c-0.016 0-0.016 0-0.032 0-128.192 0-248.72 49.936-339.376 140.576-90.64 90.656-140.576 211.184-140.56 339.408-0.016 128.224 49.92 248.768 140.576 339.424z" />
<glyph unicode="&#xe914;" glyph-name="arrow-type-2-right" d="M445.664 164.688l274.336 272v22.624l-274.336 272-23.808-22.624 260.112-260.688-259.808-260.688zM511.984-64c0 0 0.016 0 0.032 0 136.768 0 265.328 53.28 362.032 149.968s149.952 225.28 149.936 362.048c0 136.768-53.248 265.344-149.952 362.032-96.688 96.688-225.248 149.952-362.016 149.952-0.016 0-0.016 0-0.032 0-136.768 0-265.328-53.264-362.032-149.968-96.688-96.704-149.952-225.28-149.936-362.048 0-136.768 53.248-265.344 149.952-362.032 96.688-96.688 225.248-149.952 362.016-149.952zM172.592 787.408c90.64 90.656 211.184 140.592 339.424 140.592 0.016 0 0.016 0 0.032 0 128.192 0 248.72-49.936 339.376-140.576 90.656-90.656 140.576-211.2 140.56-339.408 0-128.224-49.92-248.768-140.56-339.424s-211.184-140.592-339.408-140.592h-0.032c-0.016 0-0.016 0-0.032 0-128.192 0-248.72 49.936-339.376 140.576-90.64 90.656-140.576 211.184-140.56 339.408-0.016 128.224 49.92 248.768 140.576 339.424z" />
<glyph unicode="&#xe915;" glyph-name="arrow-type-3-top" d="M1007.629 276.352l-456.111 456.103c-10.54 10.54-24.593 16.326-39.903 16.326-15.002 0-29.063-5.786-39.586-16.326l-455.686-455.67c-10.54-10.548-16.342-24.609-16.342-39.611s5.794-29.071 16.342-39.611l33.559-33.559c10.54-10.54 24.609-16.359 39.611-16.359s29.063 5.819 39.611 16.359l382.65 382.65 383.074-383.091c10.54-10.531 24.601-16.342 39.611-16.342 15.002 0 29.055 5.811 39.603 16.342l33.567 33.575c21.829 21.837 21.829 57.377 0 79.214z" />
<glyph unicode="&#xe916;" glyph-name="arrow-type-3-bottom" d="M1007.633 699.864l-33.543 33.776c-10.556 10.548-24.601 16.359-39.612 16.359-15.002 0-29.064-5.811-39.62-16.359l-382.629-382.646-383.071 383.071c-10.54 10.548-24.601 16.351-39.603 16.351s-29.072-5.803-39.62-16.351l-33.551-33.567c-21.846-21.829-21.846-57.386 0-79.215l456.092-457.732c10.54-10.54 24.585-17.966 39.72-17.966h0.175c15.010 0 29.055 7.434 39.595 17.966l455.667 456.491c10.556 10.54 16.351 25.009 16.367 40.011 0 15.010-5.811 29.28-16.367 39.811z" />
<glyph unicode="&#xe917;" glyph-name="arrow-type-3-left" d="M413.363 447.784l383.076 383.093c10.548 10.523 16.351 24.593 16.351 39.595 0 15.010-5.803 29.072-16.351 39.611l-33.567 33.551c-10.531 10.556-24.609 16.367-39.611 16.367s-29.063-5.811-39.603-16.367l-456.113-456.105c-10.581-10.573-16.376-24.701-16.334-39.72-0.042-15.085 5.744-29.196 16.334-39.778l455.688-455.663c10.54-10.556 24.601-16.367 39.611-16.367 15.002 0 29.063 5.811 39.611 16.367l33.559 33.551c21.837 21.837 21.837 57.386 0 79.214l-382.651 382.651z" />
<glyph unicode="&#xe918;" glyph-name="arrow-type-3-right" d="M796.462 487.956l-455.693 455.685c-10.54 10.548-24.609 16.359-39.611 16.359s-29.071-5.811-39.611-16.359l-33.559-33.55c-21.837-21.862-21.837-57.393 0-79.222l382.657-382.657-383.081-383.081c-10.54-10.548-16.359-24.609-16.359-39.603 0-15.010 5.819-29.071 16.359-39.628l33.559-33.542c10.548-10.548 24.609-16.359 39.611-16.359s29.071 5.811 39.611 16.359l456.118 456.101c10.565 10.581 16.367 24.709 16.334 39.728 0.033 15.077-5.769 29.196-16.334 39.769z" />
<glyph unicode="&#xe919;" glyph-name="arrow-type-4-top" d="M512.002 586.181l422.743-422.746c9.702-9.702 25.432-9.702 35.131 0l46.847 46.844c4.661 4.657 7.277 10.977 7.277 17.566s-2.617 12.908-7.277 17.566l-487.155 487.159c-9.702 9.702-25.432 9.702-35.131 0l-487.155-487.155c-4.661-4.657-7.277-10.977-7.277-17.566s2.617-12.908 7.277-17.566l46.847-46.844c9.702-9.702 25.432-9.702 35.131 0l422.743 422.743z" />
<glyph unicode="&#xe91a;" glyph-name="arrow-type-4-bottom" d="M529.567 163.435l487.155 487.155c9.702 9.702 9.702 25.432 0 35.131l-46.847 46.847c-4.657 4.661-10.977 7.277-17.566 7.277s-12.908-2.617-17.566-7.277l-422.743-422.746-422.746 422.746c-4.657 4.661-10.977 7.277-17.566 7.277s-12.908-2.617-17.566-7.277l-46.847-46.847c-4.849-4.849-7.277-11.209-7.277-17.566s2.425-12.716 7.277-17.566l487.155-487.155c9.702-9.705 25.432-9.705 35.134 0z" />
<glyph unicode="&#xe91b;" glyph-name="arrow-type-4-left" d="M227.435 430.433l487.155-487.155c9.702-9.702 25.432-9.702 35.131 0l46.847 46.847c4.661 4.657 7.277 10.977 7.277 17.566s-2.617 12.908-7.277 17.566l-422.746 422.743 422.746 422.746c4.661 4.657 7.277 10.977 7.277 17.566s-2.617 12.908-7.277 17.566l-46.847 46.847c-4.849 4.849-11.209 7.277-17.566 7.277s-12.716-2.425-17.566-7.277l-487.155-487.155c-9.705-9.702-9.705-25.432 0-35.134z" />
<glyph unicode="&#xe91c;" glyph-name="arrow-type-4-right" d="M796.565 465.567l-487.155 487.155c-9.702 9.702-25.432 9.702-35.131 0l-46.847-46.847c-4.661-4.657-7.277-10.977-7.277-17.566s2.617-12.908 7.277-17.566l422.746-422.743-422.746-422.746c-4.661-4.657-7.277-10.977-7.277-17.566s2.617-12.908 7.277-17.566l46.847-46.847c4.849-4.849 11.209-7.277 17.566-7.277s12.716 2.425 17.566 7.277l487.155 487.155c9.705 9.702 9.705 25.432 0 35.134z" />
<glyph unicode="&#xe91d;" glyph-name="arrow-type-5-top" d="M874.040 810.040c-96.706 96.701-225.28 149.96-362.040 149.96s-265.334-53.259-362.040-149.96c-96.701-96.706-149.96-225.28-149.96-362.040s53.259-265.334 149.96-362.040c96.706-96.701 225.28-149.96 362.040-149.96s265.334 53.259 362.040 149.96c96.701 96.706 149.96 225.28 149.96 362.040s-53.259 265.334-149.96 362.040zM512-0.66c-247.392 0-448.66 201.268-448.66 448.66s201.268 448.66 448.66 448.66 448.66-201.268 448.66-448.66-201.268-448.66-448.66-448.66zM241.561 388.832l44.714-44.862 225.725 224.991 225.725-224.991 44.714 44.862-270.439 269.559z" />
<glyph unicode="&#xe91e;" glyph-name="arrow-type-5-bottom" d="M874.040 810.040c-96.706 96.701-225.28 149.96-362.040 149.96s-265.334-53.259-362.040-149.96c-96.701-96.706-149.96-225.28-149.96-362.040s53.259-265.334 149.96-362.040c96.706-96.701 225.28-149.96 362.040-149.96s265.334 53.259 362.040 149.96c96.701 96.706 149.96 225.28 149.96 362.040s-53.259 265.334-149.96 362.040zM512-0.66c-247.392 0-448.66 201.268-448.66 448.66s201.268 448.66 448.66 448.66 448.66-201.268 448.66-448.66-201.268-448.66-448.66-448.66zM512 327.039l-225.725 224.991-44.714-44.862 270.439-269.559 270.439 269.559-44.714 44.862z" />
<glyph unicode="&#xe91f;" glyph-name="arrow-type-5-left" d="M874.040 810.040c-96.706 96.701-225.28 149.96-362.040 149.96s-265.334-53.259-362.040-149.96c-96.701-96.706-149.96-225.28-149.96-362.040s53.259-265.334 149.96-362.040c96.706-96.701 225.28-149.96 362.040-149.96s265.334 53.259 362.040 149.96c96.701 96.706 149.96 225.28 149.96 362.040s-53.259 265.334-149.96 362.040zM512-0.66c-247.392 0-448.66 201.268-448.66 448.66s201.268 448.66 448.66 448.66 448.66-201.268 448.66-448.66-201.268-448.66-448.66-448.66zM571.168 718.439l-269.559-270.439 269.559-270.439 44.862 44.714-224.991 225.725 224.991 225.725z" />
<glyph unicode="&#xe920;" glyph-name="arrow-type-5-right" d="M874.040 810.040c-96.706 96.701-225.28 149.96-362.040 149.96s-265.334-53.259-362.040-149.96c-96.701-96.706-149.96-225.28-149.96-362.040s53.259-265.334 149.96-362.040c96.706-96.701 225.28-149.96 362.040-149.96s265.334 53.259 362.040 149.96c96.701 96.706 149.96 225.28 149.96 362.040s-53.259 265.334-149.96 362.040zM512-0.66c-247.392 0-448.66 201.268-448.66 448.66s201.268 448.66 448.66 448.66 448.66-201.268 448.66-448.66-201.268-448.66-448.66-448.66zM407.97 673.725l224.991-225.725-224.991-225.725 44.862-44.714 269.559 270.439-269.559 270.439z" />
<glyph unicode="&#xe921;" glyph-name="arrow-type-6-top" d="M511.999 747.611l458.773-457.28 53.229 53.402-512.001 510.332-511.999-510.332 53.229-53.402zM0 95.336l53.229-53.402 458.77 457.28 458.773-457.28 53.229 53.402-512.001 510.332z" />
<glyph unicode="&#xe922;" glyph-name="arrow-type-6-bottom" d="M511.999 148.392l-458.77 457.277-53.229-53.402 511.999-510.332 512.001 510.332-53.229 53.402zM1024 800.664l-53.229 53.402-458.773-457.277-458.77 457.277-53.229-53.402 511.999-510.332z" />
<glyph unicode="&#xe923;" glyph-name="arrow-type-6-left" d="M669.668 906.774l-53.402 53.226-510.334-512 510.334-512 53.402 53.226-457.278 458.774zM918.065 906.774l-53.402 53.226-510.334-512 510.334-512 53.402 53.226-457.278 458.774z" />
<glyph unicode="&#xe924;" glyph-name="arrow-type-6-right" d="M407.732 960l-53.402-53.226 457.281-458.774-457.281-458.774 53.402-53.226 510.334 512zM159.334 960l-53.402-53.226 457.281-458.774-457.281-458.774 53.402-53.226 510.334 512z" />
<glyph unicode="&#xe925;" glyph-name="arrow-type-7-top" d="M512.001 703.166l-512.001-510.334h1024z" />
<glyph unicode="&#xe926;" glyph-name="arrow-type-7-bottom" d="M0 703.166l512.001-510.334 511.999 510.334z" />
<glyph unicode="&#xe927;" glyph-name="arrow-type-7-left" d="M256.834 448l510.332-512v1024z" />
<glyph unicode="&#xe928;" glyph-name="arrow-type-7-right" d="M256.834 960v-1024l510.332 512z" />
<glyph unicode="&#xe929;" glyph-name="arrow-type-8-top" d="M0 448c0-282.312 229.688-512 512-512s512 229.688 512 512-229.688 512-512 512-512-229.688-512-512zM979.478 448c0-257.781-209.697-467.478-467.478-467.478s-467.478 209.697-467.478 467.478 209.697 467.478 467.478 467.478 467.478-209.697 467.478-467.478zM318.175 508.26c-8.704-8.704-8.704-22.773 0-31.477s22.773-8.704 31.477 0l162.349 162.349 162.349-162.349c8.704-8.704 22.773-8.704 31.477 0 4.341 4.341 6.522 10.040 6.522 15.738s-2.182 11.398-6.522 15.738l-178.087 178.087c-8.704 8.704-22.773 8.704-31.477 0l-178.087-178.087zM496.262 463.738l-178.087-178.087c-8.704-8.704-8.704-22.773 0-31.477s22.773-8.704 31.477 0l162.349 162.349 162.349-162.349c8.704-8.704 22.773-8.704 31.477 0 4.341 4.341 6.522 10.040 6.522 15.738s-2.182 11.398-6.522 15.738l-178.087 178.087c-8.704 8.704-22.773 8.704-31.477 0z" />
<glyph unicode="&#xe92a;" glyph-name="arrow-type-8-bottom" d="M1024 448c0 282.312-229.688 512-512 512s-512-229.688-512-512 229.688-512 512-512 512 229.688 512 512zM44.522 448c0 257.781 209.697 467.478 467.478 467.478s467.478-209.697 467.478-467.478-209.697-467.478-467.478-467.478-467.478 209.697-467.478 467.478zM705.825 387.74c8.704 8.704 8.704 22.773 0 31.477s-22.773 8.704-31.477 0l-162.349-162.349-162.349 162.349c-8.704 8.704-22.773 8.704-31.477 0-4.341-4.341-6.522-10.040-6.522-15.738s2.182-11.398 6.522-15.738l178.087-178.087c8.704-8.704 22.773-8.704 31.477 0l178.087 178.087zM527.738 432.262l178.087 178.087c8.704 8.704 8.704 22.773 0 31.477s-22.773 8.704-31.477 0l-162.349-162.349-162.349 162.349c-8.704 8.704-22.773 8.704-31.477 0-4.341-4.341-6.522-10.040-6.522-15.738s2.182-11.398 6.522-15.738l178.087-178.087c8.704-8.704 22.773-8.704 31.477 0z" />
<glyph unicode="&#xe92b;" glyph-name="arrow-type-8-left" d="M512 960c-282.312 0-512-229.688-512-512s229.688-512 512-512 512 229.688 512 512-229.688 512-512 512zM512-19.478c-257.781 0-467.478 209.697-467.478 467.478s209.697 467.478 467.478 467.478 467.478-209.697 467.478-467.478-209.697-467.478-467.478-467.478zM320.868 448l162.349 162.349c8.704 8.704 8.704 22.773 0 31.477s-22.773 8.704-31.477 0l-178.087-178.087c-8.704-8.704-8.704-22.773 0-31.477l178.087-178.087c4.341-4.341 10.040-6.522 15.738-6.522s11.398 2.182 15.738 6.522c8.704 8.704 8.704 22.773 0 31.477l-162.349 162.349zM705.825 641.825c-8.704 8.704-22.773 8.704-31.477 0l-178.087-178.087c-8.704-8.704-8.704-22.773 0-31.477l178.087-178.087c4.341-4.341 10.040-6.522 15.738-6.522s11.398 2.182 15.738 6.522c8.704 8.704 8.704 22.773 0 31.477l-162.349 162.349 162.349 162.349c8.704 8.704 8.704 22.773 0 31.477z" />
<glyph unicode="&#xe92c;" glyph-name="arrow-type-8-right" d="M512-64c282.312 0 512 229.688 512 512s-229.688 512-512 512-512-229.688-512-512 229.688-512 512-512zM512 915.478c257.781 0 467.478-209.697 467.478-467.478s-209.697-467.478-467.478-467.478-467.478 209.697-467.478 467.478 209.697 467.478 467.478 467.478zM703.132 448l-162.349-162.349c-8.704-8.704-8.704-22.773 0-31.477s22.773-8.704 31.477 0l178.087 178.087c8.704 8.704 8.704 22.773 0 31.477l-178.087 178.087c-4.341 4.341-10.040 6.522-15.738 6.522s-11.398-2.182-15.738-6.522c-8.704-8.704-8.704-22.773 0-31.477l162.349-162.349zM318.175 254.175c8.704-8.704 22.773-8.704 31.477 0l178.087 178.087c8.704 8.704 8.704 22.773 0 31.477l-178.087 178.087c-4.341 4.341-10.040 6.522-15.738 6.522s-11.398-2.182-15.738-6.522c-8.704-8.704-8.704-22.773 0-31.477l162.349-162.349-162.349-162.349c-8.704-8.704-8.704-22.773 0-31.477z" />
<glyph unicode="&#xe92d;" glyph-name="hamburger-1" d="M896 960h-768c-70.239 0-128-63.008-128-133.281v-763.487c0-70.271 56.927-127.232 127.168-127.232h762.975c70.239 0 133.856 57.729 133.856 128v768c0 70.273-57.761 128-128 128zM768 256h-512c-17.664 0-32 14.336-32 32s14.336 32 32 32h512c17.664 0 32-14.336 32-32s-14.336-32-32-32zM768 448h-512c-17.664 0-32 14.336-32 32s14.336 32 32 32h512c17.664 0 32-14.336 32-32s-14.336-32-32-32zM768 640h-512c-17.664 0-32 14.336-32 32s14.336 32 32 32h512c17.664 0 32-14.336 32-32s-14.336-32-32-32z" />
<glyph unicode="&#xe92e;" glyph-name="close-1" d="M896 960h-768c-70.688 0-128-57.312-128-128v-768c0-70.688 57.312-128 128-128h768c70.688 0 128 57.312 128 128v768c0 70.688-57.312 128-128 128zM670.4 334.848c12.512-12.512 12.512-32.768 0-45.248-12.514-12.512-32.768-12.512-45.248 0l-113.152 113.152-113.152-113.119c-12.512-12.514-32.768-12.514-45.248 0-12.512 12.512-12.512 32.768 0 45.248l113.152 113.119-113.152 113.12c-12.512 12.512-12.512 32.768 0 45.247 12.512 12.512 32.768 12.512 45.248 0l113.152-113.119 113.152 113.152c12.512 12.512 32.768 12.512 45.248 0 12.512-12.512 12.512-32.768 0-45.248l-113.152-113.152 113.152-113.152z" />
<glyph unicode="&#xe92f;" glyph-name="hamburger-2" d="M512 960c-282.313 0-512-229.687-512-512s229.687-512 512-512 512 229.687 512 512-229.687 512-512 512zM731.429 210.286h-438.857c-20.187 0-36.571 16.384-36.571 36.571s16.384 36.571 36.571 36.571h438.857c20.187 0 36.571-16.384 36.571-36.571s-16.384-36.571-36.571-36.571zM731.429 411.429h-438.857c-20.187 0-36.571 16.384-36.571 36.571s16.384 36.571 36.571 36.571h438.857c20.187 0 36.571-16.384 36.571-36.571s-16.384-36.571-36.571-36.571zM731.429 612.571h-438.857c-20.187 0-36.571 16.384-36.571 36.571s16.384 36.571 36.571 36.571h438.857c20.187 0 36.571-16.384 36.571-36.571s-16.384-36.571-36.571-36.571z" />
<glyph unicode="&#xe930;" glyph-name="close-2" d="M874.21 810.21c-199.713 199.713-524.688 199.733-724.421 0s-199.713-524.688 0-724.421 524.688-199.733 724.421 0c199.713 199.733 199.713 524.707 0 724.421zM713.998 246.002c-15.387-15.387-40.329-15.387-55.716 0l-146.283 146.283-153.237-153.237c-15.387-15.387-40.329-15.387-55.716 0s-15.387 40.329 0 55.716l153.237 153.237-146.283 146.283c-15.387 15.387-15.387 40.348 0 55.716 15.387 15.387 40.329 15.387 55.716 0l146.283-146.283 139.309 139.309c15.387 15.387 40.329 15.387 55.716 0s15.387-40.329 0-55.716l-139.309-139.309 146.283-146.283c15.387-15.387 15.387-40.329 0-55.716z" />
<glyph unicode="&#xe931;" glyph-name="hamburger-3" d="M512 960c-282.768 0-512-229.232-512-512s229.232-512 512-512 512 229.232 512 512-229.232 512-512 512zM704 304h-384v32h384v-32zM704 432h-384v32h384v-32zM704 560h-384v32h384v-32z" />
<glyph unicode="&#xe932;" glyph-name="close-3" d="M512 960c-282.768 0-512-229.232-512-512s229.232-512 512-512 512 229.232 512 512-229.232 512-512 512zM659.056 323.568l-22.624-22.624-124.432 124.432-124.448-124.432-22.624 22.624 124.448 124.432-124.448 124.448 22.624 22.624 124.448-124.448 124.432 124.448 22.624-22.624-124.432-124.448 124.432-124.432z" />
<glyph unicode="&#xe933;" glyph-name="hamburger-4" d="M512 960c-282.768 0-512-229.232-512-512s229.232-512 512-512 512 229.232 512 512-229.232 512-512 512zM512-32c-265.088 0-480.016 214.912-480.016 480s214.928 480 480.016 480c265.088 0 480-214.912 480-480s-214.912-480-480-480zM320 432h384v32h-384v-32zM320 560h384v32h-384v-32zM320 304h384v32h-384v-32z" />
<glyph unicode="&#xe934;" glyph-name="close-4" d="M512 960c-282.768 0-512-229.232-512-512s229.232-512 512-512 512 229.232 512 512-229.232 512-512 512zM512-32.016c-265.088 0-480 214.928-480 480.016s214.912 480 480 480c265.088 0 480-214.912 480-480s-214.912-480.016-480-480.016zM659.056 572.448l-22.624 22.624-124.432-124.448-124.448 124.448-22.624-22.624 124.448-124.448-124.448-124.432 22.624-22.624 124.448 124.432 124.432-124.432 22.624 22.624-124.432 124.432z" />
<glyph unicode="&#xe935;" glyph-name="hamburger-4-1" d="M512-64c-282.32 0-512 229.68-512 512s229.68 512 512 512 512-229.68 512-512-229.68-512-512-512zM512 925.867c-263.492 0-477.867-214.375-477.867-477.867s214.375-477.867 477.867-477.867 477.867 214.375 477.867 477.867-214.375 477.867-477.867 477.867zM512 379.734c-37.648 0-68.266 30.617-68.266 68.266s30.617 68.266 68.266 68.266 68.266-30.617 68.266-68.266-30.633-68.266-68.266-68.266zM512 482.133c-18.828 0-34.133-15.305-34.133-34.133s15.305-34.133 34.133-34.133 34.133 15.305 34.133 34.133-15.305 34.133-34.133 34.133zM324.266 379.734c-37.648 0-68.266 30.617-68.266 68.266s30.617 68.266 68.266 68.266c37.648 0 68.266-30.617 68.266-68.266s-30.633-68.266-68.266-68.266zM324.266 482.133c-18.82 0-34.133-15.305-34.133-34.133s15.313-34.133 34.133-34.133c18.828 0 34.133 15.305 34.133 34.133s-15.305 34.133-34.133 34.133zM699.734 379.734c-37.648 0-68.266 30.617-68.266 68.266s30.617 68.266 68.266 68.266c37.648 0 68.266-30.617 68.266-68.266s-30.633-68.266-68.266-68.266zM699.734 482.133c-18.828 0-34.133-15.305-34.133-34.133s15.305-34.133 34.133-34.133c18.82 0 34.133 15.305 34.133 34.133s-15.313 34.133-34.133 34.133z" />
<glyph unicode="&#xe936;" glyph-name="hamburger-5" d="M512 960c-282.768 0-512-229.232-512-512s229.232-512 512-512 512 229.232 512 512c-0.321 282.634-229.366 511.679-512 512zM731.429 246.857h-438.857c-10.098 0-18.286 8.187-18.286 18.286s8.187 18.286 18.286 18.286h438.857c10.098 0 18.286-8.187 18.286-18.286s-8.187-18.286-18.286-18.286zM731.429 429.714h-438.857c-10.098 0-18.286 8.187-18.286 18.286s8.187 18.286 18.286 18.286h438.857c10.098 0 18.286-8.187 18.286-18.286s-8.187-18.286-18.286-18.286zM731.429 612.571h-438.857c-10.098 0-18.286 8.187-18.286 18.286s8.187 18.286 18.286 18.286h438.857c10.098 0 18.286-8.187 18.286-18.286s-8.187-18.286-18.286-18.286z" />
<glyph unicode="&#xe937;" glyph-name="hamburger-5-1" d="M512 960c-282.768 0-512-229.232-512-512s229.232-512 512-512 512 229.232 512 512c-0.321 282.634-229.366 511.679-512 512zM274.286 246.857h-36.571c-10.098 0-18.286 8.187-18.286 18.286s8.187 18.286 18.286 18.286h36.571c10.098 0 18.286-8.187 18.286-18.286s-8.187-18.286-18.286-18.286zM274.286 429.714h-36.571c-10.098 0-18.286 8.187-18.286 18.286s8.187 18.286 18.286 18.286h36.571c10.098 0 18.286-8.187 18.286-18.286s-8.187-18.286-18.286-18.286zM274.286 612.571h-36.571c-10.098 0-18.286 8.187-18.286 18.286s8.187 18.286 18.286 18.286h36.571c10.098 0 18.286-8.187 18.286-18.286s-8.187-18.286-18.286-18.286zM786.286 246.857h-438.857c-10.098 0-18.286 8.187-18.286 18.286s8.187 18.286 18.286 18.286h438.857c10.098 0 18.286-8.187 18.286-18.286s-8.187-18.286-18.286-18.286zM786.286 429.714h-438.857c-10.098 0-18.286 8.187-18.286 18.286s8.187 18.286 18.286 18.286h438.857c10.098 0 18.286-8.187 18.286-18.286s-8.187-18.286-18.286-18.286zM786.286 612.571h-438.857c-10.098 0-18.286 8.187-18.286 18.286s8.187 18.286 18.286 18.286h438.857c10.098 0 18.286-8.187 18.286-18.286s-8.187-18.286-18.286-18.286z" />
<glyph unicode="&#xe938;" glyph-name="close-5" d="M512 960c-282.768 0-512-229.232-512-512s229.232-512 512-512 512 229.232 512 512c-0.321 282.634-229.366 511.679-512 512zM744.357 241.5c4.75-4.589 6.661-11.393 4.982-17.786-1.67-6.393-6.661-11.384-13.054-13.054-6.393-1.679-13.196 0.232-17.786 4.982l-206.5 206.5-206.5-206.5c-7.179-6.929-18.58-6.83-25.634 0.223s-7.152 18.455-0.223 25.634l206.5 206.5-206.5 206.5c-6.929 7.179-6.83 18.58 0.223 25.634s18.455 7.152 25.634 0.223l206.5-206.5 206.5 206.5c7.179 6.929 18.58 6.83 25.634-0.223s7.152-18.455 0.223-25.634l-206.5-206.5z" />
<glyph unicode="&#xe939;" glyph-name="hamburger-6" d="M511.998 960c-282.316 0-511.998-229.682-511.998-511.998 0-142.283 59.941-279.319 164.452-375.973 8.45-7.814 21.634-7.297 29.448 1.15 7.814 8.453 7.3 21.634-1.153 29.448-96.009 88.792-151.070 214.675-151.070 345.376 0 259.335 210.987 470.322 470.322 470.322s470.322-210.987 470.322-470.322-210.987-470.322-470.322-470.322c-11.506 0-20.838-9.332-20.838-20.838s9.332-20.838 20.838-20.838c282.32 0 511.998 229.682 511.998 511.998s-229.679 511.998-511.998 511.998zM292.377 646.784h439.245c11.506 0 20.838 9.332 20.838 20.838s-9.332 20.838-20.838 20.838h-439.245c-11.506 0-20.838-9.332-20.838-20.838s9.332-20.838 20.838-20.838zM292.377 427.164h439.245c11.506 0 20.838 9.332 20.838 20.838s-9.332 20.838-20.838 20.838h-439.245c-11.506 0-20.838-9.332-20.838-20.838s9.332-20.838 20.838-20.838zM752.461 228.377c0 11.506-9.332 20.838-20.838 20.838h-439.245c-11.506 0-20.838-9.332-20.838-20.838s9.332-20.838 20.838-20.838h439.245c11.506 0 20.838 9.332 20.838 20.838z" />
<glyph unicode="&#xe93a;" glyph-name="close-6" d="M511.998 960c-282.316 0-511.998-229.682-511.998-511.998s229.682-511.998 511.998-511.998c132.972 0 258.974 50.738 354.802 142.867 8.297 7.974 8.558 21.168 0.58 29.462-7.971 8.294-21.161 8.558-29.462 0.58-88.024-84.627-203.77-131.232-325.917-131.232-259.338-0.003-470.325 210.983-470.325 470.322s210.987 470.322 470.322 470.322 470.322-210.987 470.322-470.322c0-58.493-10.6-115.558-31.504-169.606-4.15-10.735 1.184-22.8 11.919-26.954 10.739-4.143 22.8 1.184 26.954 11.919 22.766 58.864 34.31 120.987 34.31 184.644 0 282.313-229.682 511.995-512.002 511.995zM582.147 403.849c-8.231 8.054-21.422 7.908-29.469-0.313-8.050-8.224-7.908-21.418 0.313-29.469l164.052-160.579c4.057-3.97 9.318-5.946 14.576-5.946 5.408 0 10.812 2.094 14.892 6.262 8.050 8.224 7.908 21.418-0.313 29.469l-164.052 160.576zM434.748 495.784c4.067-4.067 9.402-6.102 14.736-6.102s10.666 2.035 14.736 6.102c8.137 8.137 8.137 21.331 0 29.469l-157.106 157.106c-8.137 8.137-21.335 8.137-29.469 0-8.137-8.137-8.137-21.331 0-29.469l157.103-157.106zM746.355 682.359c-8.137 8.137-21.335 8.137-29.469 0l-439.245-439.245c-8.137-8.137-8.137-21.331 0-29.469 4.067-4.067 9.402-6.102 14.736-6.102s10.666 2.035 14.736 6.102l439.242 439.242c8.137 8.141 8.137 21.331 0 29.472z" />
<glyph unicode="&#xe93b;" glyph-name="hamburger-7" d="M59.368 758.119h905.265c32.805 0 59.368 27.053 59.368 60.515 0 33.379-26.563 60.529-59.368 60.529h-905.265c-32.805 0-59.368-27.151-59.368-60.529 0-33.476 26.563-60.515 59.368-60.515zM964.632 508.529h-905.265c-32.805 0-59.368-27.165-59.368-60.529 0-33.49 26.563-60.529 59.368-60.529h905.265c32.805 0 59.368 27.053 59.368 60.529 0 33.365-26.563 60.529-59.368 60.529zM964.632 137.895h-905.265c-32.805 0-59.368-27.165-59.368-60.529 0-33.49 26.563-60.529 59.368-60.529h905.265c32.805 0 59.368 27.081 59.368 60.529 0 33.365-26.563 60.529-59.368 60.529z" />
<glyph unicode="&#xe93c;" glyph-name="close-7" d="M611.942 448.019l391.488 391.348c27.426 27.57 27.426 72.39 0 99.956-27.57 27.57-72.53 27.57-99.956 0l-391.488-391.348-391.353 391.348c-27.57 27.57-72.39 27.57-99.956 0s-27.57-72.39 0-99.956l391.348-391.348-391.348-391.488c-27.57-27.426-27.57-72.39 0-99.956 27.57-27.426 72.39-27.426 99.956 0l391.348 391.488 391.488-391.488c27.426-27.426 72.39-27.426 99.956 0 27.426 27.57 27.426 72.53 0 99.956l-391.483 391.488z" />
<glyph unicode="&#xe93d;" glyph-name="hamburger-8" d="M977.455 960h-930.909c-25.706 0-46.545-20.84-46.545-46.545v-930.909c0-25.706 20.84-46.545 46.545-46.545h930.909c25.706 0 46.545 20.84 46.545 46.545v930.909c0 25.706-20.84 46.545-46.545 46.545zM930.909 29.091h-837.818v837.818h837.818v-837.818zM279.276 618.67h465.455c25.706 0 46.545 20.84 46.545 46.545s-20.84 46.545-46.545 46.545h-465.455c-25.706 0-46.545-20.84-46.545-46.545s20.84-46.545 46.545-46.545zM279.276 401.458h465.455c25.706 0 46.545 20.84 46.545 46.545s-20.84 46.545-46.545 46.545h-465.455c-25.706 0-46.545-20.84-46.545-46.545s20.84-46.545 46.545-46.545zM279.276 184.246h465.455c25.706 0 46.545 20.84 46.545 46.545s-20.84 46.545-46.545 46.545h-465.455c-25.706 0-46.545-20.84-46.545-46.545s20.84-46.545 46.545-46.545z" />
<glyph unicode="&#xe93e;" glyph-name="close-8" d="M977.455 959.997h-930.909c-25.706 0-46.545-20.84-46.545-46.545v-930.903c0-25.706 20.84-46.545 46.545-46.545h930.909c25.706 0 46.545 20.84 46.545 46.545v930.903c0 25.706-20.84 46.545-46.545 46.545zM930.909 29.094h-837.818v837.812h837.818v-837.812zM261.877 197.877c9.089-9.092 20.998-13.635 32.911-13.635 11.909 0 23.825 4.546 32.911 13.635l184.298 184.295 184.292-184.295c9.092-9.092 21.001-13.635 32.914-13.635 11.909 0 23.825 4.546 32.911 13.635 18.178 18.174 18.178 47.647 0 65.825l-184.292 184.298 184.301 184.298c18.178 18.174 18.178 47.647 0 65.825-18.174 18.178-47.644 18.178-65.825 0l-184.298-184.301-184.298 184.304c-18.181 18.178-47.647 18.178-65.825 0-18.178-18.174-18.178-47.647 0-65.825l184.298-184.304-184.298-184.298c-18.178-18.174-18.178-47.647 0-65.821z" />
<glyph unicode="&#xe93f;" glyph-name="hamburger-9" d="M511.992-63.985c-282.317 0-511.992 229.675-511.992 511.977 0 282.317 229.675 511.992 511.992 511.992s512.008-229.675 512.008-511.992c0-282.302-229.69-511.977-512.008-511.977zM511.992 898.052c-248.162 0-450.060-201.898-450.060-450.060s201.898-450.045 450.060-450.045 450.076 201.898 450.076 450.045-201.914 450.060-450.076 450.060zM279.004 478.958h466.008v-61.932h-466.008v61.932zM279.004 643.713h466.008v-61.932h-466.008v61.932zM278.988 314.219h466.023v-61.932h-466.023v61.932z" />
<glyph unicode="&#xe940;" glyph-name="hamburger-9-1" d="M511.992-63.985c-282.317 0-511.992 229.675-511.992 511.977 0 282.317 229.675 511.992 511.992 511.992s512.008-229.675 512.008-511.992c0-282.302-229.69-511.977-512.008-511.977zM511.992 898.052c-248.162 0-450.060-201.898-450.060-450.060s201.898-450.045 450.060-450.045 450.076 201.898 450.076 450.045-201.914 450.060-450.076 450.060zM309.97 478.974h466.008v-61.932h-466.008v61.932zM309.954 643.729h295.695v-61.932h-295.695v61.932zM309.939 314.219h373.125v-61.932h-373.125v61.932z" />
<glyph unicode="&#xe941;" glyph-name="close-9" d="M511.992 960c-282.317 0-511.992-229.675-511.992-511.992s229.675-511.992 511.992-511.992 512.008 229.675 512.008 511.992-229.69 511.992-512.008 511.992zM511.992-2.052c-248.162 0-450.060 201.898-450.060 450.060s201.898 450.060 450.060 450.060 450.076-201.898 450.076-450.060-201.914-450.060-450.076-450.060zM698.655 590.869l-142.877-142.862 142.877-142.846-43.801-43.801-142.846 142.862-142.846-142.862-43.801 43.786 142.862 142.862-142.877 142.877 43.801 43.801 142.877-142.893 142.862 142.877 43.77-43.801z" />
<glyph unicode="&#xe942;" glyph-name="hamburger-10" d="M512 960c-282.313 0-512-229.687-512-512s229.687-512 512-512 512 229.687 512 512-229.687 512-512 512zM512-27.429c-262.162 0-475.429 213.285-475.429 475.429s213.266 475.429 475.429 475.429 475.429-213.285 475.429-475.429-213.266-475.429-475.429-475.429zM274.286 649.143h475.429c10.112 0 18.286 8.192 18.286 18.286s-8.174 18.286-18.286 18.286h-475.429c-10.112 0-18.286-8.192-18.286-18.286s8.174-18.286 18.286-18.286zM822.857 393.143h-621.714c-10.112 0-18.286-8.192-18.286-18.286s8.174-18.286 18.286-18.286h621.714c10.112 0 18.286 8.192 18.286 18.286s-8.174 18.286-18.286 18.286zM822.857 539.429h-621.714c-10.112 0-18.286-8.192-18.286-18.286s8.174-18.286 18.286-18.286h621.714c10.112 0 18.286 8.192 18.286 18.286s-8.174 18.286-18.286 18.286zM749.714 246.857h-475.429c-10.112 0-18.286-8.192-18.286-18.286s8.174-18.286 18.286-18.286h475.429c10.112 0 18.286 8.192 18.286 18.286s-8.174 18.286-18.286 18.286z" />
<glyph unicode="&#xe943;" glyph-name="hamburger-10-1" d="M512 960c-282.313 0-512-229.687-512-512s229.687-512 512-512 512 229.687 512 512-229.687 512-512 512zM512-27.429c-262.162 0-475.429 213.285-475.429 475.429s213.266 475.429 475.429 475.429 475.429-213.285 475.429-475.429-213.266-475.429-475.429-475.429zM731.429 667.429h-438.857c-10.112 0-18.286-8.192-18.286-18.286s8.174-18.286 18.286-18.286h438.857c10.112 0 18.286 8.192 18.286 18.286s-8.174 18.286-18.286 18.286zM731.429 466.286h-438.857c-10.112 0-18.286-8.192-18.286-18.286s8.174-18.286 18.286-18.286h438.857c10.112 0 18.286 8.192 18.286 18.286s-8.174 18.286-18.286 18.286zM731.429 265.143h-438.857c-10.112 0-18.286-8.192-18.286-18.286s8.174-18.286 18.286-18.286h438.857c10.112 0 18.286 8.192 18.286 18.286s-8.174 18.286-18.286 18.286z" />
<glyph unicode="&#xe944;" glyph-name="close-10" d="M512 960c-282.309 0-512-229.671-512-512s229.691-512 512-512 512 229.671 512 512-229.691 512-512 512zM512-24.615c-260.588 0-472.615 212.027-472.615 472.615s212.027 472.615 472.615 472.615 472.615-212.027 472.615-472.615-212.027-472.615-472.615-472.615zM703.153 639.153c-7.7 7.7-20.145 7.7-27.845 0l-163.308-163.308-163.308 163.308c-7.7 7.7-20.145 7.7-27.845 0s-7.7-20.145 0-27.845l163.308-163.308-163.308-163.308c-7.7-7.7-7.7-20.145 0-27.845 3.84-3.84 8.881-5.77 13.922-5.77s10.082 1.93 13.922 5.77l163.308 163.308 163.308-163.308c3.84-3.84 8.881-5.77 13.922-5.77s10.082 1.93 13.922 5.77c7.7 7.7 7.7 20.145 0 27.845l-163.308 163.308 163.308 163.308c7.7 7.7 7.7 20.145 0 27.845z" />
<glyph unicode="&#xe945;" glyph-name="hamburger-11" d="M833.334 960h-642.668c-105.134 0-190.666-85.534-190.666-190.668v-642.664c0-105.134 85.532-190.668 190.666-190.668h642.668c105.134 0 190.666 85.534 190.666 190.668v642.664c0 105.134-85.532 190.668-190.666 190.668zM964 126.668c0-72.050-58.616-130.668-130.666-130.668h-642.668c-72.050 0-130.666 58.618-130.666 130.668v642.664c0 72.050 58.616 130.668 130.666 130.668h642.668c72.050 0 130.666-58.618 130.666-130.668v-642.664zM801.2 719h-578.4c-16.568 0-30-13.432-30-30s13.432-30 30-30h578.4c16.568 0 30 13.432 30 30s-13.432 30-30 30zM801.2 478h-578.4c-16.568 0-30-13.432-30-30s13.432-30 30-30h578.4c16.568 0 30 13.432 30 30s-13.432 30-30 30zM801.2 237h-578.4c-16.568 0-30-13.432-30-30s13.432-30 30-30h578.4c16.568 0 30 13.432 30 30s-13.432 30-30 30z" />
<glyph unicode="&#xe946;" glyph-name="close-11" d="M833.334 960h-642.668c-105.134 0-190.666-85.534-190.666-190.668v-642.666c0-105.132 85.532-190.666 190.666-190.666h642.668c105.134 0 190.666 85.534 190.666 190.666v642.666c0 105.134-85.532 190.668-190.666 190.668zM964 126.666c0-72.048-58.616-130.666-130.666-130.666h-642.668c-72.050 0-130.666 58.618-130.666 130.666v642.666c0 72.050 58.616 130.668 130.666 130.668h642.668c72.050 0 130.666-58.618 130.666-130.668v-642.666zM801.202 478h-578.404c-16.568 0-30-13.432-30-30s13.432-30 30-30h578.402c16.568 0 30 13.432 30 30 0.002 16.568-13.43 30-29.998 30z" />
<glyph unicode="&#xe947;" glyph-name="hamburger-12" d="M512 960c-282.947 0-512-229.053-512-512s229.053-512 512-512 512 229.053 512 512-229.053 512-512 512zM512-10.105c-253.305 0-458.105 204.8-458.105 458.105s204.8 458.105 458.105 458.105 458.105-204.8 458.105-458.105-204.8-458.105-458.105-458.105zM774.737 448c0-14.821-12.126-26.947-26.947-26.947h-471.579c-14.821 0-26.947 12.126-26.947 26.947s12.126 26.947 26.947 26.947h471.579c14.821 0 26.947-12.126 26.947-26.947zM774.737 286.316c0-14.821-12.126-26.947-26.947-26.947h-471.579c-14.821 0-26.947 12.126-26.947 26.947s12.126 26.947 26.947 26.947h471.579c14.821 0 26.947-12.126 26.947-26.947zM774.737 609.684c0-14.821-12.126-26.947-26.947-26.947h-471.579c-14.821 0-26.947 12.126-26.947 26.947s12.126 26.947 26.947 26.947h471.579c14.821 0 26.947-12.126 26.947-26.947z" />
<glyph unicode="&#xe948;" glyph-name="hamburger-12-1" d="M513.648 960c-282.037 0-511.499-229.938-511.499-512.011s229.438-511.987 511.499-511.987h0.037c282.037 0 511.499 229.938 511.499 512.011s-229.474 511.987-511.535 511.987zM513.66-1.5h-0.012c-247.577 0-449 201.912-449 449.513 0 247.614 201.423 449.244 449.037 449.244s448.988-201.777 448.988-449.391-201.423-449.366-449.012-449.366zM735.517 479.738h-290.618c-17.26 0-31.249-13.989-31.249-31.249s13.989-31.249 31.249-31.249h290.618c17.26 0 31.249 13.989 31.249 31.249s-13.989 31.249-31.249 31.249zM735.517 623.485h-290.618c-17.26 0-31.249-13.989-31.249-31.249s13.989-31.249 31.249-31.249h290.618c17.26 0 31.249 13.989 31.249 31.249s-13.989 31.249-31.249 31.249zM735.517 335.992h-290.618c-17.26 0-31.249-13.989-31.249-31.249s13.989-31.249 31.249-31.249h290.618c17.26 0 31.249 13.989 31.249 31.249s-13.989 31.249-31.249 31.249zM348.027 479.738h-59.374c-17.26 0-31.249-13.989-31.249-31.249s13.989-31.249 31.249-31.249h59.374c17.26 0 31.249 13.989 31.249 31.249s-13.989 31.249-31.249 31.249zM348.027 623.485h-59.374c-17.26 0-31.249-13.989-31.249-31.249s13.989-31.249 31.249-31.249h59.374c17.26 0 31.249 13.989 31.249 31.249s-13.989 31.249-31.249 31.249zM348.027 335.992h-59.374c-17.26 0-31.249-13.989-31.249-31.249s13.989-31.249 31.249-31.249h59.374c17.26 0 31.249 13.989 31.249 31.249s-13.989 31.249-31.249 31.249z" />
<glyph unicode="&#xe949;" glyph-name="close-12" d="M512 960c-282.947 0-512-229.053-512-512s229.053-512 512-512 512 229.053 512 512-229.053 512-512 512zM512-10.105c-253.305 0-458.105 204.8-458.105 458.105s204.8 458.105 458.105 458.105 458.105-204.8 458.105-458.105-204.8-458.105-458.105-458.105zM549.726 448l169.768 169.768c10.779 10.779 10.779 26.947 0 37.726s-26.947 10.779-37.726 0l-169.768-169.768-169.768 169.768c-10.779 10.779-26.947 10.779-37.726 0s-10.779-26.947 0-37.726l169.768-169.768-169.768-169.768c-10.779-10.779-10.779-26.947 0-37.726s26.947-10.779 37.726 0l169.768 169.768 169.768-169.768c10.779-10.779 26.947-10.779 37.726 0s10.779 26.947 0 37.726l-169.768 169.768z" />
<glyph unicode="&#xe94a;" glyph-name="hamburger-13" d="M972.801 499.201h-921.602c-28.262 0-51.199-22.937-51.199-51.199s22.937-51.199 51.199-51.199h921.598c28.159 0 51.199 22.937 51.199 51.199 0.003 28.262-23.037 51.199-51.196 51.199zM51.199 704.001h921.598c28.159 0 51.199 22.937 51.199 51.199s-23.040 51.199-51.199 51.199h-921.598c-28.262 0-51.199-22.937-51.199-51.199s22.937-51.199 51.199-51.199zM972.801 191.999h-921.602c-28.262 0-51.199-23.040-51.199-51.199s22.937-51.199 51.199-51.199h921.598c28.159 0 51.199 23.040 51.199 51.199 0.003 28.159-23.037 51.199-51.196 51.199z" />
<glyph unicode="&#xe94b;" glyph-name="close-13" d="M1011.886 947.884c-16.154 16.154-42.344 16.154-58.498 0l-941.272-941.27c-16.154-16.154-16.154-42.344 0-58.498 8.076-8.080 18.664-12.116 29.25-12.116s21.172 4.038 29.25 12.118l941.27 941.27c16.152 16.152 16.152 42.342 0 58.496zM1011.884 6.612l-941.272 941.27c-16.152 16.154-42.344 16.154-58.496 0-16.154-16.152-16.154-42.342 0-58.496l941.272-941.272c8.076-8.078 18.664-12.116 29.25-12.116s21.174 4.038 29.248 12.114c16.15 16.156 16.15 42.346-0.002 58.5z" />
<glyph unicode="&#xe94c;" glyph-name="hamburger-14" d="M1002.666 768h-981.332c-11.776 0-21.334-9.558-21.334-21.334s9.558-21.334 21.334-21.334h981.334c11.776 0 21.334 9.558 21.334 21.334s-9.56 21.334-21.336 21.334zM1002.666 469.334h-981.332c-11.776 0-21.334-9.558-21.334-21.334s9.558-21.334 21.334-21.334h981.334c11.776 0 21.334 9.558 21.334 21.334s-9.56 21.334-21.336 21.334zM1002.666 170.666h-981.332c-11.776 0-21.334-9.556-21.334-21.332s9.558-21.334 21.334-21.334h981.334c11.776 0 21.334 9.558 21.334 21.334-0.002 11.776-9.56 21.332-21.336 21.332z" />
<glyph unicode="&#xe94d;" glyph-name="hamburger-14-1" d="M963.429 224.223h-903.798c-15.519 0-28.1-12.589-28.1-28.1 0-15.528 12.581-28.1 28.1-28.1h903.798c15.519 0 28.1 12.572 28.1 28.1 0 15.51-12.581 28.1-28.1 28.1zM963.429 488.372h-903.798c-15.519 0-28.1-12.598-28.1-28.108 0-15.519 12.581-28.1 28.1-28.1h903.798c15.519 0 28.1 12.581 28.1 28.1 0 15.51-12.581 28.108-28.1 28.108zM963.429 752.512h-903.798c-15.519 0-28.1-12.589-28.1-28.1 0-15.519 12.581-28.1 28.1-28.1h903.798c15.519 0 28.1 12.581 28.1 28.1 0 15.51-12.581 28.1-28.1 28.1z" />
<glyph unicode="&#xe94e;" glyph-name="close-14" d="M1023.977 928.087l-31.863 31.913-480.114-480.082-480.082 480.082-31.895-31.913 480.082-480.078-480.082-480.082 31.895-31.927 480.082 480.146 480.114-480.146 31.863 31.927-480.082 480.082z" />
<glyph unicode="&#xe94f;" glyph-name="trophy-2" d="M993.998 886.093h-131.406c0.477 14.555 0.742 29.195 0.742 43.906 0 16.57-13.437 30-30 30h-642.671c-16.562 0-30-13.43-30-30 0-14.711 0.266-29.352 0.742-43.906h-131.406c-16.57 0-30-13.43-30-30 0-134.422 35.133-261.242 98.922-357.109 63.055-94.773 147.047-149.133 237.781-154.422 20.57-22.383 42.312-40.633 64.961-54.555v-133.336h-50.328c-60.844 0-110.336-49.5-110.336-110.336v-50.328h-2.133c-16.57 0-30-13.437-30-30 0-16.57 13.43-30 30-30h546.265c16.57 0 30 13.43 30 30 0 16.562-13.43 30-30 30h-2.133v50.328c0 60.836-49.492 110.336-110.336 110.336h-50.328v133.336c22.648 13.914 44.398 32.172 64.969 54.555 90.726 5.289 174.718 59.648 237.781 154.422 63.789 95.867 98.914 222.687 98.914 357.109 0 16.57-13.43 30-30 30zM148.875 532.219c-52.617 79.070-83.531 182.492-88.242 293.874h104.125c10.82-136.922 42.961-263.484 93.195-363.945 8-16 16.367-31.117 25.047-45.351-49.898 18.844-96.078 58.234-134.125 115.422zM722.999 46.337v-50.336h-421.999v50.336c0 27.75 22.578 50.336 50.336 50.336h321.328c27.758 0 50.336-22.586 50.336-50.336zM562.335 156.672h-100.672v107.265c16.492-4.344 33.297-6.602 50.336-6.602s33.844 2.258 50.336 6.602zM580.913 335.313c-1.352-0.555-2.648-1.227-3.891-1.969-21.203-10.547-42.992-16.008-65.023-16.008-22.023 0-43.805 5.461-65 15.992-1.258 0.758-2.562 1.43-3.93 2-23.523 12.437-46.281 31.219-67.805 55.898-1.133 1.617-2.406 3.109-3.82 4.469-21.367 25.367-41.469 56.57-59.828 93.289-55.133 110.258-86.976 255.234-90.601 411.015h581.968c-3.633-155.781-35.476-300.765-90.601-411.015-18.359-36.719-38.461-67.922-59.82-93.289-1.422-1.359-2.711-2.859-3.836-4.477-21.523-24.687-44.289-43.461-67.812-55.906zM875.123 532.219c-38.047-57.187-84.226-96.578-134.125-115.422 8.68 14.234 17.047 29.352 25.047 45.351 50.234 100.461 82.367 227.023 93.195 363.945h104.125c-4.711-111.383-35.625-214.804-88.242-293.874z" />
<glyph unicode="&#xe950;" glyph-name="trophy" d="M932.902 861.252c-14.13 16.616-34.736 26.142-56.534 26.142h-71.546v22.38c0 27.694-22.534 50.226-50.226 50.226h-485.185c-27.696 0-50.224-22.532-50.224-50.224v-22.38h-71.554c-21.798 0-42.406-9.528-56.534-26.142-13.984-16.442-20.028-38.038-16.578-59.248 18.8-115.6 91.55-217.726 194.8-273.745 9.434-22.682 20.118-44.166 32.016-64.182 38.004-63.95 85.25-108.146 137.254-129.52 5.27-53.288-30.188-103.77-83.588-115.8-0.114-0.026-0.194-0.066-0.306-0.092-10.422-2.49-18.18-11.842-18.18-23.026v-108.726h-43.972c-39.204 0-71.098-31.894-71.098-71.098v-56.116c0-13.090 10.61-23.7 23.7-23.7h535.975c13.090 0 23.7 10.61 23.7 23.7v56.116c0 39.204-31.894 71.098-71.098 71.098h-43.976v108.724c0 11.206-7.786 20.572-18.236 23.040-0.098 0.024-0.192 0.056-0.29 0.080-53.804 12.11-89.328 63.1-83.504 116.788 51.096 21.72 97.514 65.522 134.958 128.528 11.898 20.018 22.58 41.504 32.016 64.19 103.244 56.020 175.99 158.144 194.79 273.741 3.45 21.21-2.594 42.804-16.58 59.246zM121.304 809.616c-1.232 7.574 0.862 15.008 5.898 20.932 5.11 6.008 12.554 9.452 20.428 9.452h71.554v-43.604c0-68.372 8.726-134.6 25.264-195.166-64.992 51.358-109.74 125.964-123.144 208.386zM733.723 39.512c13.068 0 23.7-10.632 23.7-23.7v-32.416h-488.579v32.416c0 13.068 10.632 23.7 23.7 23.7h441.179zM642.347 171.938v-85.026h-258.427v85.026h258.427zM446.075 219.337c5.858 6.448 11.214 13.438 16.004 20.92 15.794 24.678 24.084 52.714 24.456 81.348 8.418-1.146 16.914-1.76 25.482-1.76 9.322 0 18.558 0.716 27.704 2.072 0.54-38.478 15.516-74.9 40.698-102.578h-134.344zM757.419 796.394c0-116.758-26.812-226.178-75.494-308.099-46.384-78.060-106.728-121.050-169.912-121.050-63.194 0-123.542 42.988-169.932 121.046-48.684 81.922-75.496 191.342-75.496 308.099v113.386c0 1.56 1.268 2.826 2.824 2.826h485.183c1.56 0 2.828-1.268 2.828-2.826v-113.382zM902.698 809.616c-13.404-82.416-58.148-157.020-123.138-208.382 16.536 60.566 25.262 126.79 25.262 195.16v43.604h71.546c7.876 0 15.32-3.446 20.428-9.452 5.036-5.922 7.132-13.356 5.902-20.93zM655.883 716.684c-2.79 8.576-10.206 14.828-19.132 16.128l-71.516 10.392-31.982 64.804c-3.994 8.088-12.232 13.21-21.252 13.21-9.022 0-17.26-5.122-21.252-13.21l-31.982-64.804-71.516-10.392c-8.928-1.296-16.344-7.55-19.132-16.13-2.786-8.582-0.462-17.998 5.998-24.296l51.75-50.442-12.218-71.226c-1.526-8.892 2.128-17.876 9.428-23.18 7.296-5.302 16.974-6 24.958-1.804l63.966 33.626 63.964-33.626c3.468-1.822 7.254-2.72 11.024-2.72 4.912 0 9.804 1.526 13.932 4.526 7.3 5.304 10.954 14.288 9.428 23.18l-12.218 71.226 51.75 50.442c6.464 6.296 8.788 15.714 6.002 24.296zM556.129 667.189c-5.586-5.444-8.136-13.288-6.816-20.978l6.204-36.18-32.49 17.082c-3.45 1.816-7.24 2.72-11.028 2.72s-7.576-0.908-11.028-2.72l-32.49-17.082 6.204 36.18c1.32 7.688-1.23 15.532-6.816 20.978l-26.282 25.62 36.324 5.28c7.718 1.12 14.392 5.97 17.844 12.964l16.246 32.916 16.244-32.916c3.454-6.994 10.124-11.842 17.844-12.964l36.324-5.28-26.284-25.62z" />
<glyph unicode="&#xe951;" glyph-name="award" d="M934 960c-14.523 0-829.531 0-844 0-49.625 0-90-40.375-90-90v-45.711c0-74.039 25.469-146.656 71.727-204.469 38.469-48.086 93.188-85.75 154.078-106.047l31.797-10.594c36.93-60.172 94.852-106.523 164.398-128.539v-46.641c0-16.539-13.461-30-30-30-49.625 0-90-40.375-90-90v-30h-30c-16.57 0-30-13.43-30-30v-152h-30c-16.57 0-30-13.43-30-30s13.43-30 30-30h600c16.57 0 30 13.43 30 30s-13.43 30-30 30h-30v152c0 16.57-13.43 30-30 30h-30v30c0 49.625-40.375 90-90 90-16.539 0-30 13.461-30 30v46.641c69.469 21.992 127.336 68.258 164.273 128.336l33.531 10.672c0.125 0.039 0.258 0.086 0.383 0.125 59.992 20 112.586 56.672 152.086 106.047 46.258 57.813 71.727 130.43 71.727 204.469v45.711c0 49.625-40.375 90-90 90zM118.578 657.305c-37.773 47.219-58.578 106.516-58.578 166.984v45.711c0 16.539 13.461 30 30 30h95.148l30.531-274.781c1.789-16.070 4.906-31.766 9.172-47-41.953 17.633-79.164 45.203-106.273 79.086zM302-4v122h420v-122zM565.273 426.766c-13.625-3.133-23.273-15.258-23.273-29.234v-69.531c0-49.625 40.375-90 90-90 16.539 0 30-13.461 30-30v-30h-300v30c0 16.539 13.461 30 30 30 49.625 0 90 40.375 90 90v69.531c0 13.977-9.648 26.102-23.273 29.234-98.602 22.688-172.305 105.102-183.414 205.078l-29.797 268.156h532.969l-29.797-268.156c-11.109-99.977-84.813-182.391-183.414-205.078zM964 824.289c0-60.469-20.805-119.766-58.578-166.984-28.32-35.406-64.883-62.797-106.539-80.016 4.406 15.531 7.609 31.531 9.438 47.93l30.531 274.781h95.148c16.539 0 30-13.461 30-30zM636.211 754.578l-67.414 9.563-30.023 59.391c-5.102 10.102-15.461 16.469-26.773 16.469s-21.672-6.367-26.773-16.469l-30.023-59.391-67.422-9.563c-11.383-1.617-20.844-9.602-24.352-20.555s-0.445-22.953 7.883-30.875l48.359-46.023-11.383-64.789c-1.969-11.219 2.578-22.586 11.742-29.344 9.188-6.766 21.391-7.727 31.5-2.539l60.469 31.039 60.461-31.039c10.133-5.203 22.336-4.219 31.5 2.539 9.172 6.766 13.719 18.125 11.75 29.344l-11.383 64.789 48.352 46.023c8.336 7.93 11.398 19.922 7.891 30.875s-12.969 18.938-24.359 20.555zM551.32 689.508c-7.281-6.93-10.609-17.031-8.867-26.93l3.719-21.188-20.477 10.508c-8.594 4.414-18.797 4.414-27.398 0l-20.477-10.508 3.727 21.188c1.734 9.898-1.594 20-8.867 26.93l-15.102 14.367 21.555 3.063c9.711 1.375 18.133 7.414 22.555 16.164l10.313 20.398 10.305-20.391c4.43-8.758 12.852-14.797 22.563-16.172l21.555-3.055z" />
<glyph unicode="&#xe952;" glyph-name="prize-badge-with-star-and-ribbon" d="M638.522 295.158c19.182 32.057 47.386 48.48 84.786 48.918s56.276 19.488 56.889 56.976c0.526 37.313 16.773 65.516 48.831 84.611 32.145 19.182 39.108 44.977 20.802 77.647-18.218 32.583-18.218 65.166 0 97.837 18.306 32.583 11.387 58.334-20.802 77.516-32.057 19.226-48.349 47.386-48.831 84.873-0.613 37.313-19.488 56.363-56.889 56.801-37.4 0.526-65.604 16.861-84.786 48.918-19.182 32.145-44.977 39.108-77.56 20.802-32.583-18.218-65.254-18.218-97.837 0-32.627 18.262-58.422 11.343-77.604-20.802-19.138-32.101-47.386-48.437-84.742-48.918-37.313-0.438-56.276-19.488-56.801-56.801-0.613-37.488-16.861-65.604-48.918-84.873-32.145-19.182-39.196-44.889-20.802-77.516 18.306-32.671 18.306-65.254 0-97.837-18.394-32.671-11.387-58.509 20.802-77.647 32.057-19.094 48.349-47.298 48.918-84.611 0.526-37.444 19.488-56.539 56.801-56.976 37.4-0.438 65.604-16.861 84.786-48.918 19.182-32.145 44.977-39.108 77.56-20.715 32.583 18.043 65.254 18.043 97.837 0 32.583-18.35 58.422-11.43 77.56 20.715zM512.131 407.578c-113.077 0-204.695 91.618-204.695 204.695 0 112.989 91.618 204.607 204.695 204.607 112.989 0 204.607-91.618 204.607-204.607 0-113.077-91.618-204.695-204.607-204.695zM297.495 314.077c-39.327 0-44.583 18.306-44.583 18.306l-153.587-301.875 123.15 13.839 68.1-102.479c0 0 141.894 296.050 141.894 294.079-73.531 1.839-44.276 76.158-134.974 78.129zM769.161 320.558c-112.201-11.737-89.384-39.59-115.048-61.225-29.517-31.488-66.392-25.313-66.392-25.313l173.207-298.021 42.612 110.362 121.135-15.81-155.514 290.006zM554.875 657.425l-42.831 86.713-42.875-86.713-95.866-14.014 69.283-67.575-16.335-95.559 85.793 45.064 85.793-45.064-16.335 95.559 69.283 67.575z" />
<glyph unicode="&#xe953;" glyph-name="trophy-1" d="M594.23 551.952c4.655-3.103 10.861-1.552 17.066 1.552 4.655 3.103 7.758 9.31 6.207 15.514l-15.514 91.54 66.714 63.613c4.655 4.655 6.207 10.861 4.655 15.514-1.552 6.207-6.207 9.31-12.411 10.861l-91.54 13.963-40.338 82.231c-4.655 10.861-23.272 10.861-27.927 0l-40.338-82.231-91.54-13.963c-6.207-1.552-10.861-4.655-12.413-10.861s0-12.413 4.655-15.514l66.714-63.613-15.514-91.54c-1.552-6.207 1.552-12.413 6.207-15.514 4.655-3.103 10.861-4.655 17.066-1.552l82.231 43.442 76.024-43.442zM507.346 626.425l-63.613-32.582 12.411 68.266c1.552 4.655-1.552 10.861-4.655 13.963l-49.648 48.097 68.266 9.31c4.655 0 9.31 4.655 12.411 7.758l31.031 62.061 31.031-62.061c1.552-4.655 6.207-7.758 12.411-7.758l68.266-9.31-49.648-48.097c-3.103-3.103-4.655-9.31-4.655-13.963l12.411-68.266-60.51 32.582c-1.552 1.552-4.655 1.552-7.758 1.552s-4.647 0-7.75-1.552zM944.873-32.969h-186.182v142.74c0 9.31-6.207 15.514-15.514 15.514h-71.369v79.127c0 9.31-6.207 15.514-15.514 15.514h-86.885v175.321c0 1.552 3.103 4.655 4.655 4.655 74.472 21.721 141.189 82.231 184.63 169.116 99.297 52.752 159.806 155.151 159.806 268.413v20.169c0 9.31-6.207 15.514-15.514 15.514h-83.782c0 24.824-1.552 57.406-3.103 72.921-1.554 7.758-7.76 13.965-15.516 13.965h-578.715c-7.758 0-13.963-6.207-15.514-13.963-1.552-15.514-3.103-48.097-3.103-72.921h-85.334c-9.31 0-15.514-6.207-15.514-15.514v-21.721c0-114.813 60.51-217.213 159.806-268.413 44.993-86.885 110.158-145.842 184.63-169.116 3.103 0 4.655-3.103 4.655-4.655v-175.321h-86.885c-9.31 0-15.514-6.207-15.514-15.514v-79.127h-71.369c-9.31 0-15.514-6.207-15.514-15.514v-141.189h-183.083c-9.31 0-15.514-6.207-15.514-15.514s6.207-15.514 15.514-15.514c107.055 0 760.242 0 865.745 0 9.31 0 15.514 6.207 15.514 15.514s-7.756 15.512-15.514 15.512zM822.304 842.084h68.266v-6.207c0-86.885-40.338-167.564-107.055-217.213 24.824 65.167 38.789 141.191 38.789 223.419zM133.43 835.879v6.207h68.266c0-80.679 13.963-156.703 38.789-221.868-66.716 49.648-107.055 128.776-107.055 215.661zM288.582 586.084c-35.686 71.369-55.855 159.806-55.855 255.999 0 21.721 1.552 63.613 3.103 86.885h552.339c1.552-24.824 3.103-66.714 3.103-86.885 0-96.193-18.618-184.63-54.303-255.999-40.338-80.679-100.848-136.534-169.116-156.703-17.066-4.655-27.927-18.618-27.927-34.134v-175.321h-54.303v175.321c-1.552 15.514-12.413 29.479-27.927 34.134-68.266 20.169-128.774 76.024-169.114 156.703zM381.674 187.345h259.103v-63.613h-259.103v63.613zM729.212-32.969h-432.872v127.224c134.982 0 80.679 0 432.874 0v-127.224z" />
<glyph unicode="&#xe954;" glyph-name="headphones" d="M1024 443.397c0 136.767-53.26 265.425-149.918 362.082s-225.315 149.918-362.082 149.918-265.425-53.26-362.082-149.918-149.918-225.315-149.918-362.082v-242.411c0-136.986 111.562-248.548 248.548-248.548 16.438 0 29.589 13.151 29.589 29.589v437.699c0 16.438-13.151 29.589-29.589 29.589-75.836 0-143.781-33.973-189.37-87.671v81.753c0 249.644 203.178 452.822 452.822 452.822s452.822-203.178 452.822-452.822c0-1.973 0.219-3.945 0.658-5.918-0.438-1.973-0.658-3.945-0.658-5.918v-81.753c-45.589 53.699-113.534 87.671-189.37 87.671-16.438 0-29.589-13.151-29.589-29.589v-437.699c0-16.438 13.151-29.589 29.589-29.589 136.986 0 248.548 111.562 248.548 248.548v242.411c0 1.973-0.219 3.945-0.658 5.918 0.438 1.973 0.658 3.945 0.658 5.918zM218.74 387.945v-373.918c-90.301 14.247-159.781 92.712-159.781 186.959 0.219 94.247 69.479 172.712 159.781 186.959zM805.26 2.192v373.918c90.301-14.247 159.781-92.712 159.781-186.959-0.219-94.466-69.479-172.712-159.781-186.959z" />
<glyph unicode="&#xe955;" glyph-name="headphones-1" d="M804.477 255.398c-10.656 2.859-21.602-3.453-24.461-14.125-2.859-10.648 3.461-21.617 14.125-24.477 10.656-2.859 21.625 3.477 24.484 14.125 2.852 10.672-3.477 21.617-14.148 24.477zM229.852 216.797c10.672 2.859 16.984 13.828 14.125 24.477-2.859 10.672-13.805 16.984-24.453 14.125-10.672-2.852-17.008-13.805-14.148-24.477 2.852-10.648 13.828-16.984 24.477-14.125zM1001.109 280.469c15.063 49.57 22.43 96.18 22.43 141.977 0 132.859-54.172 258.391-152.547 353.477-95.875 92.672-224.43 146.078-358.992 146.078-275.656 0-511.539-223.047-511.539-499.555 0-45.805 7.367-92.422 22.438-142.008-18.297-14.445-27.188-38.961-20.883-62.625l51.734-192.992c8.5-31.828 41.211-51.016 73.414-42.414l61.227 16.414c14.031-20.391 39.828-30.695 64.922-23.992l77.211 20.703c31.922 8.555 50.938 41.492 42.383 73.406l-72.398 270.219c-8.563 31.93-41.516 50.945-73.43 42.383l-77.188-20.68c-8.133-2.18-15.422-5.945-21.633-10.867-3.984 18.602-6.469 37.055-7.43 55.266 22.18 6.977 38.742 26.336 41.094 50.414 16.484 168.984 173.531 306.469 350.078 306.469s333.594-137.484 350.078-306.469c2.344-24.078 18.914-43.437 41.094-50.414-0.961-18.211-3.445-36.664-7.43-55.266-6.219 4.922-13.5 8.688-21.633 10.867l-77.188 20.68c-31.938 8.555-64.875-10.453-73.43-42.383l-72.398-270.219c-8.555-31.922 10.461-64.852 42.383-73.406l77.227-20.703c24.992-6.68 50.82 3.523 64.906 23.992l61.242-16.422c32.313-8.625 64.938 10.742 73.391 42.406l51.742 193.031c6.313 23.672-2.617 48.219-20.875 62.633zM160.227 322.258l77.195 20.688c10.648 2.859 21.625-3.484 24.484-14.125l72.391-270.219c2.852-10.641-3.484-21.609-14.125-24.469l-19.305-5.172-36.188 135.117c-2.852 10.656-13.805 16.984-24.469 14.133-10.664-2.859-16.992-13.813-14.133-24.477l36.195-135.125-19.297-5.172c-10.633-2.844-21.617 3.5-24.477 14.141 0 0.008 0 0.016 0 0.016l-72.414 270.203c-2.852 10.633 3.492 21.609 14.141 24.461zM174.727 36.539l-57.891-15.523c-10.648-2.844-21.617 3.43-24.484 14.141l-51.727 192.984c-2.688 10.094 2.891 20.648 12.867 24.094 0.461 0.164 0.945 0.305 1.273 0.391l57.078 15.305c5.828-14.547-4.813 18.797 62.883-231.391zM40.953 402.469h40c1.742-31.844 7.625-64.242 17.563-96.734l-38.406-10.305c-11.078 37.273-17.391 72.586-19.156 107.039zM901.852 459.562c-18.891 193.594-194.609 342.547-389.852 342.547-195.352 0-370.977-149.039-389.859-342.555-0.938-9.602-9.539-17.125-19.602-17.125h-61.625c11.172 240.289 222.328 439.609 471.086 439.609 248.75 0 459.914-199.32 471.078-439.609h-61.633c-10.047 0-18.656 7.523-19.594 17.133zM983.039 402.469c-1.766-34.453-8.078-69.766-19.148-107.039l-38.414 10.297c9.938 32.508 15.82 64.898 17.563 96.742zM805.5 27.586s0 0-0.008 0c-2.852-10.641-13.836-16.984-24.453-14.148l-19.313 5.18 36.195 135.117c2.859 10.664-3.469 21.617-14.133 24.477-10.656 2.852-21.617-3.477-24.469-14.133l-36.195-135.117-19.297 5.18c-10.641 2.852-16.984 13.828-14.133 24.461l72.398 270.219c2.391 8.914 10.484 14.813 19.313 14.813 1.703 0 3.445-0.227 5.172-0.688l77.188-20.68c10.648-2.852 17-13.828 14.148-24.461zM983.375 228.164l-51.734-193.023c-2.859-10.703-13.852-16.969-24.461-14.133l-57.906 15.531c67.719 250.281 57.047 216.828 62.875 231.391 60.805-16.313 57.258-15.305 58.508-15.75 9.82-3.391 15.406-13.953 12.719-24.016z" />
<glyph unicode="&#xe956;" glyph-name="headphone-symbol" d="M223.563 406.154v-350.685c0-20.905 16.893-37.787 37.787-37.787 20.859 0 37.787 16.882 37.787 37.787v350.685c0 20.866-16.929 37.787-37.787 37.787-20.894 0-37.787-16.904-37.787-37.787zM104.956 17.254h83.203v416.354c0.228 1.995 0.591 3.987 0.591 6.032 0 179.626 144.985 325.743 323.171 325.743 178.165 0 323.149-146.118 323.149-325.743 0-2.747 0.403-5.409 0.812-8.063v-414.323h83.214c57.915 0 104.906 48.601 104.906 108.566v217.124c0 49.449-32.029 91.11-75.756 104.219-4.023 238.628-198.14 431.583-436.308 431.583-238.232 0-432.378-192.973-436.361-431.676-43.666-13.127-75.578-54.751-75.578-104.162v-217.089c0-59.929 46.987-108.566 104.956-108.566zM724.938 406.154v-350.685c0-20.905 16.918-37.787 37.784-37.787s37.784 16.882 37.784 37.787v350.685c0 20.866-16.918 37.787-37.784 37.787-20.905 0-37.784-16.904-37.784-37.787z" />
<glyph unicode="&#xe957;" glyph-name="headphones-2" d="M512 898c-281.22 0-512-228.78-512-510v-240c0-49.628 40.372-90 90-90h30v300h-30c-10.568 0-20.57-2.164-30-5.526v35.526c0 248.144 203.856 450 452 450s452-201.856 452-450v-35.526c-9.43 3.362-19.432 5.526-30 5.526h-30v-300h30c49.628 0 90 40.372 90 90v240c0 281.22-230.78 510-512 510zM270 418h-30c-33.138 0-60-26.862-60-60v-300c0-33.138 26.862-60 60-60h30c16.568 0 30 13.432 30 30v360c0 16.568-13.432 30-30 30zM784 418h-30c-16.568 0-30-13.432-30-30v-360c0-16.568 13.432-30 30-30h30c33.138 0 60 26.862 60 60v300c0 33.138-26.862 60-60 60z" />
<glyph unicode="&#xe958;" glyph-name="headphones-3" d="M862.333 570.622v39.368c0 94.225-33.345 181.782-93.795 246.75-61.956 66.689-147.146 103.261-240.081 103.261h-32.484c-92.934 0-178.124-36.571-240.081-103.261-60.45-64.968-93.795-152.524-93.795-246.75v-39.368c-73.358-4.948-131.657-66.044-131.657-140.692v-61.526c0-77.661 63.247-140.908 140.908-140.908h79.382c14.198 0 25.815 11.617 25.815 25.815v291.926c0 14.198-11.617 25.815-25.815 25.815h-37.002v38.938c0 170.165 121.331 298.38 282.030 298.38h32.484c160.914 0 282.030-128.215 282.030-298.38v-38.938h-37.002c-14.198 0-25.815-11.617-25.815-25.815v-291.711c0-14.198 11.617-25.815 25.815-25.815h36.141c-10.541-134.669-103.261-165.862-146.286-172.961-11.832 36.356-46.037 62.602-86.266 62.602h-64.538c-49.909 0-90.568-40.659-90.568-90.568s40.659-90.783 90.568-90.783h64.753c41.734 0 76.8 28.397 87.341 66.689 21.082 3.012 54.427 10.541 87.556 29.903 46.682 27.321 101.97 83.039 109.284 195.334 73.788 4.518 132.303 65.829 132.303 140.692v61.526c0.215 74.434-57.869 135.745-131.227 140.477zM225.345 279.341h-53.566c-49.264 0-89.277 40.013-89.277 89.277v61.526c0 49.264 40.013 89.277 89.277 89.277h53.566v-240.081zM577.076-12.37h-64.753c-21.513 0-38.938 17.425-38.938 38.938s17.425 38.938 38.938 38.938h64.753c21.513 0 38.938-17.425 38.938-38.938s-17.425-38.938-38.938-38.938zM942.145 368.618c0-49.264-40.013-89.277-89.277-89.277h-53.566v240.081h53.566c49.264 0 89.277-40.013 89.277-89.277v-61.526z" />
<glyph unicode="&#xe959;" glyph-name="support" d="M732 168c-11.040 0-20-8.96-20-20s8.96-20 20-20c11.040 0 20 8.96 20 20s-8.96 20-20 20zM781.244 232.674l-95.060 31.68-34.126 68.254c30.744 31.292 52.090 72.696 59.288 115.882l4.256 25.51h36.398c33.084 0 60 26.916 60 60v126c0 165.42-134.58 300-300 300-165.844 0-300-134.194-300-300v-126c0-26.072 16.722-48.304 40-56.56v-23.44c0-33.084 26.916-60 60-60h17.564c8.67-18.834 19.892-36.278 33.548-51.948 2.832-3.256 5.786-6.412 8.812-9.482l-34.108-68.216-95.062-31.682c-110.53-36.856-190.754-153.214-190.754-276.672 0-11.046 8.954-20 20-20h880c11.044 0 20 8.954 20 20 0 123.458-80.222 239.816-190.756 276.674zM772 534c0-11.028-8.972-20-20-20h-30.524c5.084 39.38 8.472 81.286 9.834 122.56 0.040 1.164 0.072 2.296 0.108 3.44h40.582v-106zM272 514c-11.028 0-20 8.972-20 20v106h40.596c0.066-2.086 0.136-4.182 0.214-6.292 0.002-0.072 0.006-0.142 0.008-0.214 0-0.006 0-0.012 0-0.018 1.4-40.144 4.744-80.962 9.712-119.474l-30.53-0.002zM312 434c-11.028 0-20 8.972-20 20v20h16.396l4.256-25.518c0.812-4.85 1.81-9.682 2.964-14.482h-3.616zM292.034 680h-39.274c10.13 134.042 121.994 240 259.24 240 136.636 0 248.992-105.944 259.238-240h-39.27c-1.44 110.454-91.386 200-202.066 200h-35.8c-110.678 0-200.63-89.546-202.068-200zM494.1 840h35.8c89.618 0 162.152-73.302 162.1-162.82 0-6.294-0.050-11.774-0.156-16.76 0-0.064-0.002-0.13-0.002-0.196l-25.016 3.574c-67.96 9.704-132.128 41.788-180.684 90.344-3.752 3.75-8.838 5.858-14.142 5.858-53.712 0-105.128-24.472-139.116-65.816 8.376 81.438 77.222 145.816 161.216 145.816zM357.080 434c-10.012 33.306-21.468 131.306-24 194.106l26.918 35.892c24.722 32.952 63.184 53.426 104.098 55.776 53.834-51.232 123.478-85.064 197.074-95.572l29.444-4.208c-1.968-41.77-5.99-83.686-11.752-122.236-0.002-0.012-0.004-0.026-0.006-0.040-1.832-12.394-3.276-20.37-6.964-42.648-10.592-63.53-57.996-120.98-120.574-136.626-25.754-6.43-52.886-6.428-78.626 0-39.074 9.768-74.902 36.804-98.024 75.556h40.772c8.256-23.278 30.486-40 56.56-40h40c33.15 0 60 26.848 60 60 0 33.084-26.916 60-60 60h-40c-26.654 0-48.556-17.216-56.594-40h-58.326zM470.318 277.968c13.718-2.89 27.704-4.368 41.682-4.368 10.942 0 21.886 0.916 32.706 2.692l-35.34-37.374-39.048 39.050zM481.87 209.842l-63.436-67.084c-17.464 33.428-32.47 68.218-44.778 103.834l23.822 47.644 84.392-84.394zM623.132 301.012l27.208-54.418c-12.328-35.676-27.338-70.478-44.784-103.866l-67.896 67.896 85.472 90.388zM452 414c0 11.042 8.956 20 20 20h40c11.028 0 20-8.972 20-20 0-11.044-8.958-20-20-20h-40c-11.028 0-20 8.972-20 20zM92.8-24c7.926 99.078 73.864 189.134 162.604 218.726l84.188 28.056c15.424-42.65 34.532-84.104 56.926-123.48 0.038-0.068 0.074-0.136 0.112-0.202 0-0.002 0.002-0.002 0.002-0.004 16.362-28.778 34.778-56.9 54.744-83.598l24.604-39.498h-383.18zM512-6.172l-27.124 43.546c-0.304 0.488-0.628 0.962-0.972 1.422-16.196 21.604-31.304 44.198-45.064 67.324l71.326 75.428 75.156-75.156c-13.852-23.294-29.012-45.982-45.222-67.592-0.98-1.306 0.41 0.752-28.1-44.972zM548.020-24l24.602 39.496c20.054 26.8 38.602 55.148 55.128 84.264 0.1 0.176 0.194 0.356 0.294 0.532 0.012 0.022 0.024 0.042 0.036 0.064 22.11 39 41.018 80.094 56.328 122.426l84.186-28.056c88.742-29.592 154.68-119.648 162.606-218.726h-383.18zM871.092 56.938c-13.366 26.754-32.944 50.522-56.618 68.734-8.756 6.738-21.312 5.1-28.046-3.656-6.736-8.756-5.098-21.312 3.656-28.048 18.908-14.546 34.544-33.532 45.222-54.906 4.946-9.898 16.966-13.882 26.83-8.954 9.88 4.936 13.89 16.948 8.956 26.83z" />
<glyph unicode="&#xe95a;" glyph-name="support-1" d="M877.714 565.943c0 202.971-163.657 366.629-365.714 366.629s-365.714-163.657-365.714-365.714c0 0 0 0 0-0.914-81.371-4.571-146.286-72.229-146.286-154.514v-18.286c0-85.943 69.486-155.429 155.429-155.429h8.229l64.914-103.314c45.714-73.143 123.429-116.114 209.371-116.114h12.8c8.229-31.086 36.571-54.857 70.4-54.857 40.229 0 73.143 32.914 73.143 73.143s-32.914 73.143-73.143 73.143c-33.829 0-62.171-23.771-70.4-54.857h-12.8c-73.143 0-139.886 37.486-178.286 99.657l-53.029 83.2h12.8c20.114 0 36.571 16.457 36.571 36.571v256c0 20.114-16.457 36.571-36.571 36.571h-36.571c0 181.943 147.2 329.143 329.143 329.143s329.143-147.2 329.143-329.143h-36.571c-20.114 0-36.571-16.457-36.571-36.571v-256c0-20.114 16.457-36.571 36.571-36.571h64c85.943 0 155.429 69.486 155.429 155.429v18.286c0 82.286-64.914 149.943-146.286 154.514zM521.143 73.143c20.114 0 36.571-16.457 36.571-36.571s-16.457-36.571-36.571-36.571-36.571 16.457-36.571 36.571 16.457 36.571 36.571 36.571zM219.429 530.286v-256h-64c-65.829 0-118.857 53.029-118.857 118.857v18.286c0 65.829 53.029 118.857 118.857 118.857h64zM987.429 393.143c0-65.829-53.029-118.857-118.857-118.857h-64v256h64c65.829 0 118.857-53.029 118.857-118.857v-18.286zM663.771 794.514c-1.829 0.914-4.571 2.743-7.314 4.571s-5.486 3.657-7.314 4.571c-8.229 5.486-20.114 2.743-24.686-6.4s-2.743-19.2 6.4-24.686c1.829-0.914 4.571-2.743 7.314-4.571s5.486-3.657 8.229-4.571c2.743-1.829 6.4-2.743 9.143-2.743 6.4 0 11.886 2.743 15.543 9.143 4.571 8.229 1.829 19.2-7.314 24.686zM512 841.143c-77.714 0-150.857-33.829-201.143-92.343-6.4-7.314-5.486-19.2 1.829-25.6 3.657-2.743 7.314-4.571 11.886-4.571 5.486 0 10.057 1.829 13.714 6.4 43.886 50.286 106.971 79.543 173.714 79.543 16.457 0 32.914-1.829 49.371-5.486 10.057-1.829 19.2 4.571 21.943 13.714s-4.571 19.2-13.714 21.943c-19.2 4.571-38.4 6.4-57.6 6.4z" />
<glyph unicode="&#xe95b;" glyph-name="support-2" d="M512 960c-215.883 0-391.531-175.648-391.531-391.531v-361.406c0-49.828 40.531-90.359 90.352-90.359 49.828 0 90.359 40.531 90.359 90.359v301.172c0 49.82-40.531 90.352-90.359 90.352-10.141 0-19.734-2.055-28.852-5.148 12.852 171.023 155.805 306.328 330.031 306.328 174.133 0 317.047-135.18 330.016-306.086-9.062 3.102-18.711 4.906-28.836 4.906-49.828 0-90.359-40.531-90.359-90.352v-301.172c0-49.828 40.531-90.359 90.359-90.359 10.609 0 20.648 2.172 30.117 5.547v-35.664c0-16.617-13.531-30.117-30.117-30.117h-216.375c-12.477 34.984-45.594 60.234-84.805 60.234-49.82 0-90.352-40.531-90.352-90.352s40.531-90.352 90.352-90.352c39.211 0 72.328 25.258 84.805 60.234h216.375c49.82 0 90.352 40.531 90.352 90.352 0 181.156 0 300.531 0 481.883 0 215.883-175.648 391.531-391.531 391.531zM963.766 532.805v-350.312c34.977 12.469 60.234 45.586 60.234 84.805v180.703c0 39.211-25.258 72.328-60.234 84.805zM0 448v-180.703c0-39.219 25.258-72.336 60.234-84.805v350.312c-34.977-12.477-60.234-45.594-60.234-84.805z" />
<glyph unicode="&#xe95c;" glyph-name="support-3" d="M619.174 257.053h-215.283c-176.907 0-321.053-144.146-321.053-321.053h858.325c-0.936 175.971-145.082 321.053-321.989 321.053zM549.909 404.007c16.848 0 32.761-5.616 44.929-15.912h77.689c38.377 40.249 61.777 93.601 61.777 153.506 0 123.554-100.154 222.771-222.771 222.771s-222.771-99.218-222.771-222.771c0-83.305 45.865-156.314 114.194-194.691 7.488 32.761 36.505 57.097 70.201 57.097h76.753zM182.055 522.881c2.808-23.4 14.040-44.929 29.952-60.841 12.168-12.168 28.080-21.528 45.865-27.144-0.936 3.744-0.936 7.488-0.936 10.296v181.587c0 3.744 0 7.488 0.936 11.232-17.784-4.68-32.761-14.040-45.865-27.144-0.936-0.936-2.808-2.808-3.744-3.744v7.488c0 17.784 1.872 35.569 4.68 52.417 2.808 17.784 7.488 34.633 14.040 50.545 5.616 16.848 13.104 32.761 22.464 47.737 8.424 14.976 18.72 29.952 29.952 43.057 0.936 0.936 1.872 2.808 1.872 3.744 8.424-0.936 16.848 1.872 22.464 7.488 57.097 57.097 131.978 85.177 205.923 85.177s149.762-28.080 205.923-85.177c6.552-6.552 14.976-8.424 22.464-7.488 0.936-0.936 0.936-2.808 1.872-3.744 11.232-13.104 21.528-28.080 29.952-43.057s15.912-30.888 22.464-47.737c5.616-16.848 10.296-33.697 14.040-51.481 2.808-16.848 4.68-34.633 4.68-52.417v-7.488c-0.936 1.872-2.808 2.808-3.744 3.744-12.168 12.168-28.080 21.528-45.865 27.144 0.936-3.744 0.936-7.488 0.936-11.232v-180.651c0-3.744 0-7.488-0.936-10.296 4.68 0.936 9.36 2.808 14.040 4.68v-58.969c0-6.552-0.936-13.104-1.872-17.784s-2.808-7.488-4.68-10.296c-1.872-1.872-4.68-3.744-7.488-4.68-3.744-0.936-7.488-1.872-12.168-1.872h-173.163c-5.616 9.36-14.976 15.912-27.144 15.912h-76.753c-16.848 0-29.952-14.040-29.952-29.952 0.936-16.848 14.040-29.952 30.888-29.952h76.753c11.232 0 21.528 6.552 27.144 15.912h180.651c6.552 0 12.168 1.872 17.784 3.744 7.488 2.808 13.104 6.552 18.72 12.168 4.68 5.616 8.424 12.168 11.232 20.592 1.872 7.488 3.744 16.848 3.744 27.144v77.689c0.936 0.936 1.872 1.872 2.808 2.808 15.912 15.912 27.144 37.441 29.952 60.841 0.936 0.936 1.872 0.936 1.872 1.872 2.808 2.808 4.68 7.488 4.68 11.232v77.689c0 19.656-1.872 39.313-4.68 58.033-5.616 19.656-10.296 38.377-16.848 57.097s-14.976 36.505-25.272 53.353c-9.36 16.848-20.592 32.761-33.697 47.737-0.936 1.872-2.808 2.808-4.68 3.744 1.872 8.424-0.936 18.72-7.488 25.272-67.393 67.393-155.378 101.090-244.3 101.090s-176.907-33.697-245.236-101.090c-6.552-6.552-9.36-16.848-7.488-25.272-1.872-0.936-2.808-1.872-4.68-3.744-13.104-14.976-24.336-30.888-33.697-47.737s-17.784-34.633-25.272-53.353c-6.552-18.72-12.168-37.441-14.976-57.097-3.744-18.72-4.68-38.377-4.68-58.033v-77.689c0-4.68 1.872-8.424 4.68-11.232 0.936-0.936 1.872-0.936 1.872-1.872z" />
<glyph unicode="&#xe95d;" glyph-name="clipboard-with-pencil" d="M573.159 63.61c-7.699-10.884-18.973-18.79-31.828-22.342l-63.931-17.461c-5.018-1.421-10.197-2.154-15.421-2.154-11.778 0-23.166 3.598-32.768 10.357-14.092 9.807-22.937 25.275-24.335 42.025l-5.614 66.016c-1.329 13.542 2.314 27.108 10.014 38.015l2.36 3.391h-228.044c-18.4 0-33.318 15.169-33.318 33.524 0 18.423 14.917 33.593 33.318 33.593h276.027l61.686 88.106h-337.713c-18.4 0-33.318 15.169-33.318 33.57s14.917 33.57 33.318 33.57l385.214 0.985 144.453 207.124v153.366c0 25.206-19.5 45.554-44.637 45.554h-110.585v-87.51c0-41.315-33.776-73.991-75.022-73.991h-222.407c-41.338 0-73.945 32.699-73.945 73.991v87.51h-111.777c-25.183 0-45.554-20.371-45.554-45.554v-782.596c0-25.206 20.394-46.677 45.554-46.677h593.69c25.206 0 44.66 21.494 44.66 46.677v279.831l-140.076-198.92zM183.59 559.089h376.347c18.354 0 33.295-15.146 33.295-33.547s-14.94-33.57-33.295-33.57h-376.347c-18.4 0-33.318 15.169-33.318 33.57s14.917 33.547 33.318 33.547zM261.224 693.368h222.201c16.819 0 30.499 13.657 30.499 30.522v127.794c0 16.865-13.68 30.522-30.499 30.522h-33.478c-0.229 42.965-35.151 77.794-78.207 77.794-43.079 0-77.955-34.807-78.207-77.794h-32.309c-16.865 0-30.499-13.657-30.499-30.522v-127.771c0-16.865 13.634-30.545 30.499-30.545zM371.764 916.669c19.134 0 34.647-15.398 34.853-34.486h-69.774c0.229 19.088 15.765 34.486 34.922 34.486zM994.349 754.274c-1.031 5.683-4.262 10.655-8.982 13.955l-55.636 38.771c-3.758 2.635-8.089 3.895-12.351 3.895-6.783 0-13.542-3.208-17.69-9.235l-394.105-565.139 91.039-63.496 394.151 565.116c3.254 4.697 4.56 10.495 3.575 16.132zM443.509 144.246l5.706-66.36c0.275-3.827 2.314-7.241 5.408-9.441 2.2-1.512 4.789-2.383 7.356-2.383 1.123 0 2.269 0.16 3.368 0.481l64.275 17.598c2.91 0.802 5.431 2.589 7.172 5.041l24.129 34.601-91.108 63.519-24.129-34.601c-1.696-2.452-2.498-5.454-2.177-8.455z" />
<glyph unicode="&#xe95e;" glyph-name="clipboard" d="M755.324 960h-462.083c-7.861 0-14.222-6.37-14.222-14.222v-32.759h-111.852c-36.009-0.037-65.204-29.222-65.241-65.241v-846.537c0.037-36.019 29.231-65.204 65.241-65.241h688.713c36.019 0.037 65.204 29.222 65.25 65.241v846.537c-0.046 36.009-29.231 65.194-65.241 65.241h-86.343v32.759c0 7.852-6.37 14.222-14.222 14.222zM307.463 931.556h433.639v-59.278h-433.639zM855.88 884.574c20.315-0.028 36.778-16.481 36.806-36.796v-846.537c-0.028-20.315-16.491-36.778-36.806-36.796h-688.713c-20.306 0.019-36.769 16.481-36.796 36.796v846.537c0.028 20.306 16.481 36.769 36.796 36.796h111.843v-26.519c0-7.852 6.361-14.222 14.222-14.222h462.093c7.852 0 14.222 6.37 14.222 14.222v26.519zM780.833 457.296h-111.917c-7.852 0-14.222-6.361-14.222-14.222 0-7.852 6.37-14.222 14.222-14.222h111.907c7.861 0 14.222 6.37 14.222 14.222 0 7.861-6.361 14.222-14.222 14.222zM341.444 457.296c-7.852 0-14.222-6.361-14.222-14.222 0-7.852 6.37-14.222 14.222-14.222h261.546c7.852 0 14.222 6.37 14.222 14.222 0 7.861-6.37 14.222-14.222 14.222zM242.222 428.852h41.278c7.852 0 14.222 6.37 14.222 14.222 0 7.861-6.37 14.222-14.222 14.222h-41.278c-7.852 0-14.222-6.361-14.222-14.222 0-7.852 6.37-14.222 14.222-14.222zM780.833 291.741h-311.231c-7.852 0-14.222-6.361-14.222-14.222 0-7.852 6.37-14.222 14.222-14.222h311.231c7.852 0 14.222 6.37 14.222 14.222 0 7.861-6.37 14.222-14.222 14.222zM242.222 263.296h161.454c7.852 0 14.222 6.37 14.222 14.222 0 7.861-6.37 14.222-14.222 14.222h-161.454c-7.852 0-14.222-6.361-14.222-14.222 0-7.852 6.37-14.222 14.222-14.222zM780.833 138.722h-12.926c-7.861 0-14.222-6.37-14.222-14.222s6.361-14.222 14.222-14.222h12.926c7.852 0 14.222 6.37 14.222 14.222s-6.37 14.222-14.222 14.222zM701.972 138.722h-26.741c-7.852 0-14.222-6.37-14.222-14.222s6.37-14.222 14.222-14.222h26.741c7.852 0 14.222 6.37 14.222 14.222s-6.37 14.222-14.222 14.222zM607.731 138.722h-365.519c-7.852 0-14.222-6.37-14.222-14.222s6.37-14.222 14.222-14.222h365.519c7.852 0 14.222 6.37 14.222 14.222s-6.37 14.222-14.222 14.222zM242.222 559.194h232.519c7.852 0 14.222 6.37 14.222 14.222v127.537c0 7.852-6.37 14.222-14.222 14.222h-232.519c-7.852 0-14.222-6.37-14.222-14.222v-127.537c0-7.852 6.37-14.222 14.222-14.222zM256.444 686.731h204.074v-99.093h-204.074zM780.833 587.639h-9.88c-7.852 0-14.222-6.37-14.222-14.222s6.37-14.222 14.222-14.222h9.88c7.852 0 14.222 6.37 14.222 14.222s-6.37 14.222-14.222 14.222zM596.528 559.194h108.491c7.852 0 14.222 6.37 14.222 14.222s-6.37 14.222-14.222 14.222h-108.491c-7.861 0-14.222-6.37-14.222-14.222s6.361-14.222 14.222-14.222zM657.25 700.954c0-7.852 6.37-14.222 14.222-14.222h109.361c7.852 0 14.222 6.37 14.222 14.222s-6.37 14.222-14.222 14.222h-109.361c-7.852 0-14.222-6.37-14.222-14.222zM596.528 686.731h9.009c7.852 0 14.222 6.37 14.222 14.222s-6.37 14.222-14.222 14.222h-9.009c-7.861 0-14.222-6.37-14.222-14.222s6.361-14.222 14.222-14.222z" />
<glyph unicode="&#xe95f;" glyph-name="clipboard-1" d="M868 778h-90.086v30c0 16.57-13.43 30-30 30h-95.398c-9.75 68.867-69.086 122-140.602 122-71.508 0-130.844-53.133-140.594-122h-95.398c-16.57 0-30-13.43-30-30v-30h-89.922c-16.57 0-30-13.43-30-30v-782c0-16.57 13.43-30 30-30h712c16.57 0 30 13.43 30 30v782c0 16.57-13.43 30-30 30zM305.922 778h94.445c8.414 0 16.445 3.539 22.125 9.742 5.688 6.211 8.5 14.516 7.758 22.898-0.219 2.5-0.328 4.977-0.328 7.359 0 45.211 36.781 82 81.992 82 45.219 0 82-36.789 82-82 0-2.383-0.109-4.859-0.328-7.359-0.742-8.383 2.070-16.695 7.758-22.898 5.68-6.211 13.703-9.742 22.125-9.742h94.445v-61.992h-411.992zM838-4h-652v722h59.922v-31.992c0-16.57 13.43-30 30-30h471.992c16.57 0 30 13.43 30 30v31.992h60.086zM748 596h-472c-16.57 0-30-13.43-30-30 0-16.563 13.43-30 30-30h472c16.57 0 30 13.438 30 30 0 16.57-13.43 30-30 30zM276 416h310c16.57 0 30 13.438 30 30 0 16.57-13.43 30-30 30h-310c-16.57 0-30-13.43-30-30 0-16.563 13.43-30 30-30zM748 356h-472c-16.57 0-30-13.43-30-30 0-16.563 13.43-30 30-30h472c16.57 0 30 13.438 30 30 0 16.57-13.43 30-30 30zM670 236h-394c-16.57 0-30-13.43-30-30 0-16.563 13.43-30 30-30h394c16.57 0 30 13.438 30 30 0 16.57-13.43 30-30 30zM469 116h-193c-16.57 0-30-13.43-30-30 0-16.563 13.43-30 30-30h193c16.57 0 30 13.438 30 30 0 16.57-13.43 30-30 30zM513.438 858h-3.039c-16.57 0-30-13.43-30-30 0-16.563 13.43-30 30-30h3.039c16.57 0 30 13.438 30 30 0 16.57-13.43 30-30 30z" />
<glyph unicode="&#xe960;" glyph-name="leaf" d="M768.282 960c0 0-84.25-81.739-175.368-114.694-674.753-244.061-390.181-719.668-380.897-721.235 0 0 37.837 65.891 88.949 103.473 324.335 238.434 390.255 512.883 390.255 512.883s-72.781-330.25-361.325-535.741c-63.729-45.362-106.881-157.053-125.148-268.686 0 0 45.174 18.252 64.6 23.195 7.575 49.433 23.413 96.767 50.189 139.052 403.276-48.014 535.356 276.94 552.611 390.248 40.725 267.611-103.865 471.505-103.865 471.505z" />
<glyph unicode="&#xe961;" glyph-name="leaf-1" d="M1020.104 376.032c-0.032 0.612-0.090 1.226-0.178 1.838l-51.326 357.136c-0.874 6.078-4.49 11.418-9.808 14.484-5.316 3.066-11.75 3.522-17.452 1.23l-236.206-94.964c-10.25-4.12-15.216-15.77-11.098-26.018 4.122-10.252 15.774-15.218 26.020-11.098l212.568 85.462 47.362-329.552c0.026-0.928 0.118-1.86 0.276-2.792 10.356-60.964-0.982-124.050-31.92-177.638-35.63-61.712-93.226-105.818-162.184-124.192-68.976-18.38-141.058-8.818-202.974 26.926-0.428 0.248-0.868 0.456-1.306 0.668 13.274 10.088 25.76 21.010 37.406 32.694l234.156 62.742c10.672 2.858 17.004 13.828 14.144 24.498-2.858 10.67-13.834 17.004-24.496 14.144l-180.172-48.276c19.798 29.452 35.286 61.932 45.87 96.682l160.744 43.070c10.672 2.858 17.004 13.828 14.144 24.498-2.858 10.67-13.834 17.004-24.496 14.144l-118.276-31.692 44.476 77.038 93.99 25.184c10.672 2.858 17.004 13.828 14.144 24.498s-13.834 17.004-24.496 14.144l-55.35-14.832 42.56 73.718c5.524 9.568 2.246 21.8-7.32 27.322-9.568 5.524-21.8 2.246-27.322-7.32l-42.56-73.716-14.832 55.35c-2.86 10.67-13.83 17.004-24.496 14.144-10.672-2.858-17.004-13.828-14.144-24.498l25.184-93.99-26.024-45.076c0.768 64.026-15.614 127.298-48.448 184.166-41.346 71.612-106.596 127.228-183.812 156.692-0.126 0.054-0.256 0.108-0.384 0.162l-90.504 36.732c-10.244 4.154-21.9-0.778-26.054-11.012-4.154-10.238 0.776-21.902 11.012-26.056l89.68-36.396c0.406-0.186 0.82-0.358 1.24-0.518 68.978-26.122 127.286-75.7 164.178-139.602 42.944-74.384 54.272-161.086 31.896-244.142-20.642-76.612-67.694-141.64-133.414-185.088l-33.568 58.14 72.774 271.592c2.86 10.672-3.472 21.638-14.144 24.498-10.678 2.858-21.636-3.474-24.496-14.144l-62.418-232.956-74.052 128.262 50.488 188.416c2.86 10.672-3.472 21.638-14.144 24.498-10.674 2.86-21.636-3.474-24.496-14.144l-40.132-149.776-58.374 101.106 30.406 113.47c2.86 10.672-3.472 21.638-14.144 24.498-10.676 2.858-21.636-3.474-24.496-14.144l-20.054-74.83-55.3 95.784c-5.522 9.566-17.756 12.846-27.322 7.32-9.568-5.522-12.846-17.756-7.32-27.322l55.3-95.782-74.828 20.050c-10.674 2.86-21.636-3.474-24.496-14.144-2.86-10.672 3.472-21.638 14.144-24.498l113.468-30.406 58.374-101.106-149.772 40.13c-10.674 2.86-21.636-3.474-24.496-14.144-2.86-10.672 3.472-21.638 14.144-24.498l188.412-50.486 74.052-128.262-232.95 62.418c-10.676 2.86-21.636-3.474-24.496-14.144-2.86-10.672 3.472-21.638 14.144-24.498l271.59-72.772 33.564-58.134c-151.148-75.332-337.162-21.076-422.476 126.69-37.292 64.592-50.956 140.632-38.474 214.114 0.17 0.992 0.26 1.982 0.276 2.968l57.114 397.49 132.502-53.778c10.246-4.156 21.9 0.776 26.054 11.012 4.154 10.238-0.776 21.902-11.012 26.056l-156.184 63.392c-5.698 2.31-12.15 1.874-17.482-1.188-5.334-3.062-8.962-8.41-9.838-14.502l-61.128-425.348c-0.098-0.674-0.158-1.35-0.186-2.020-13.276-81.834 2.208-166.314 43.706-238.19 66.826-115.75 188.588-180.492 313.756-180.49 55.282 0 111.218 12.678 163.386 39.12l24.582-42.576c3.706-6.416 10.428-10.004 17.342-10.004 3.392 0 6.832 0.864 9.982 2.682 9.568 5.522 12.846 17.756 7.32 27.322l-9.114 15.788c44.196-22.944 92.402-34.682 141.184-34.682 26.58 0 53.332 3.474 79.686 10.496 79.3 21.132 145.546 71.864 186.528 142.846 35.178 60.928 48.322 132.536 37.116 201.912zM330.516 786.878c-3.718 3.72-8.878 5.86-14.14 5.86s-10.422-2.14-14.142-5.86c-3.72-3.74-5.86-8.88-5.86-14.142 0-5.28 2.138-10.422 5.86-14.162 3.72-3.722 8.88-5.86 14.142-5.86 5.26 0 10.422 2.14 14.14 5.86 3.74 3.74 5.862 8.902 5.862 14.162s-2.122 10.402-5.862 14.142zM887.768 611.266l-0.12 0.164c-6.492 8.938-19.002 10.922-27.938 4.43-8.938-6.49-10.924-19-4.432-27.936l0.12-0.162c3.914-5.388 10.016-8.25 16.202-8.25 4.074 0 8.188 1.242 11.738 3.818 8.936 6.49 10.92 18.998 4.43 27.936z" />
<glyph unicode="&#xe962;" glyph-name="leaf-2" d="M991.062 632.945c32.562 162.797 32.937 291.648 32.937 297.054 0 7.953-3.156 15.586-8.789 21.211-5.625 5.625-13.25 8.789-21.211 8.789-5.406 0-134.258-0.375-297.054-32.937-58-11.594-112.953-25.875-164.39-42.625-0.352-0.102-0.687-0.219-1.031-0.336-33.297-10.875-65.125-22.789-95.289-35.711-36.891-15.812-71.375-33.164-103.344-51.969-0.969-0.516-1.914-1.078-2.82-1.695-51.289-30.445-96.062-64.656-133.734-102.328-74.805-74.805-116-174.25-116-280.031 0-95.719 33.734-186.25 95.57-258.031l-167.117-167.125c-11.719-11.719-11.719-30.711 0-42.422 5.859-5.859 13.531-8.789 21.211-8.789s15.359 2.93 21.211 8.789l167.125 167.117c71.773-61.828 162.305-95.562 258.023-95.562 105.789 0 205.234 41.187 280.039 115.984 37.68 37.68 71.883 82.461 102.328 133.75 0.617 0.906 1.18 1.852 1.695 2.82 18.805 31.977 36.156 66.453 51.961 103.336 12.945 30.203 24.867 62.062 35.758 95.398 0.094 0.281 0.187 0.57 0.273 0.852 16.758 51.461 31.047 106.437 42.648 164.461zM707.554 868c111.469 22.375 208.258 29.109 255.578 31.133-2.023-47.328-8.758-144.117-31.133-255.578-8.406-41.875-19.617-88.406-34.437-136.484l-284.078-0.008 174.515 174.508c11.711 11.719 11.711 30.719 0 42.43-11.719 11.719-30.711 11.719-42.43 0l-174.5-174.508v284.070c48.078 14.82 94.609 26.031 136.484 34.437zM816.359 312.953h-396.984l134.109 134.109 323.851 0.008c-16.664-45.289-36.75-90.82-60.977-134.117zM511.070 813.336v-323.836l-134.117-134.109-0.008 396.968c43.305 24.227 88.828 44.312 134.125 60.977zM140.336 412.367c0 89.75 34.953 174.133 98.422 237.601 23.914 23.914 50.25 45.492 78.187 64.961l0.016-419.539-98.469-98.476c-50.594 60.336-78.156 135.773-78.156 215.453zM713.976 174.75c-63.469-63.461-147.859-98.406-237.617-98.406-79.672 0-155.109 27.562-215.445 78.148l98.461 98.461h419.562c-19.469-27.945-41.047-54.281-64.961-78.203z" />
<glyph unicode="&#xe963;" glyph-name="branch-with-leaves-black-shape" d="M834.279 373.997c-27.062 9.321-51.631 13.808-73.725 13.418-22.082-0.382-44.48-4.193-67.139-11.424-22.67-7.233-41.616-15.233-56.841-23.999-15.253-8.768-29.998-18.76-44.28-29.994-14.288-11.238-23.719-19.048-28.288-23.431-4.573-4.381-8.006-7.904-10.287-10.574 19.042 51.815 32.952 105.716 41.704 161.717l9.719-1.711c6.479-1.145 15.329-2.001 26.567-2.576 11.24-0.574 24.103-0.761 38.574-0.574 14.46 0.192 29.713 1.999 45.721 5.43 16 3.428 32.095 8 48.287 13.718 16.206 5.706 31.713 14.376 46.562 25.997 14.863 11.616 28.11 25.236 39.727 40.856 11.616 15.621 21.137 35.524 28.563 59.715 7.453 24.181 11.548 51.137 12.289 80.852-25.893 8.76-51.139 13.332-75.713 13.712-24.574 0.386-45.905-2.388-64-8.284s-35.506-14.376-52.288-25.424c-16.752-11.048-30.274-21.624-40.573-31.709-10.275-10.093-19.904-21.139-28.835-33.14-8.952-12.001-14.761-20.185-17.425-24.568-2.672-4.383-4.569-7.904-5.718-10.568 0.39 9.903 0.574 23.523 0.574 40.856 0 17.329-0.184 26.951-0.574 28.853l3.999 8.572c3.062 5.714 6.297 13.718 9.725 23.999 3.424 10.287 7.047 22.092 10.858 35.424 3.807 13.336 6.281 27.908 7.423 43.72 1.151 15.807 1.247 32.093 0.288 48.855-0.945 16.764-4.85 33.716-11.712 50.857-6.857 17.14-16 33.336-27.424 48.569-11.424 15.243-27.52 29.814-48.287 43.72-20.769 13.906-45.055 25.617-72.865 35.141-19.428-25.907-32.76-52.288-39.997-79.143-7.239-26.853-9.527-51.045-6.859-72.568 2.666-21.528 8.948-42.951 18.852-64.288 9.905-21.335 20.185-39.048 30.854-53.142 10.668-14.096 22.766-27.712 36.28-40.858 13.528-13.143 22.871-21.616 28-25.424 5.142-3.815 9.225-6.855 12.287-9.143 0-27.808-2.288-64.955-6.871-111.427l-2.274 9.141c-1.911 5.714-4.96 13.24-9.151 22.568s-9.425 19.996-15.713 31.995c-6.281 12.001-14.284 24.003-23.995 36.004-9.705 12.001-20.373 23.613-31.995 34.857-11.612 11.236-25.613 20.761-41.996 28.569-16.388 7.804-33.905 13.52-52.576 17.14-18.671 3.627-40.099 3.807-64.288 0.574-24.191-3.24-49.616-10.191-76.279-20.859 2.284-26.665 7.716-50.953 16.284-72.855 8.572-21.904 18.952-39.905 31.141-53.999 12.185-14.090 26.479-26.469 42.857-37.137 16.384-10.668 32.379-18.76 47.999-24.288s32.473-9.911 50.569-13.143c18.097-3.24 33.616-5.144 46.572-5.716 12.955-0.574 26.187-0.674 39.713-0.288 13.52 0.384 22.382 0.853 26.575 1.429 4.199 0.574 7.624 1.047 10.295 1.431-9.917-60.944-24.966-116.382-45.155-166.28-9.525 16.774-20.291 32.385-32.291 46.87-12.001 14.466-28.853 29.131-50.569 43.988-21.724 14.863-45.435 25.617-71.147 32.287-25.719 6.657-57.616 8.096-95.715 4.289-38.1-3.823-78.855-14.679-122.282-32.59 12.575-31.615 26.763-59.423 42.573-83.43 15.811-23.985 31.899-43.049 48.285-57.145 16.384-14.096 33.911-25.328 52.576-33.718 18.659-8.378 36.38-13.802 53.14-16.282 16.762-2.472 34.095-2.946 52-1.425 17.907 1.529 33.708 4.015 47.428 7.431 13.712 3.432 27.424 7.808 41.14 13.15-38.862-71.622-86.763-127.716-143.716-168.278-56.951-40.575-118.382-61.056-184.283-61.438-7.239 0-13.336-2.378-18.285-7.149-4.952-4.761-7.427-10.754-7.427-17.993 0-7.233 2.476-13.322 7.427-18.281 4.95-4.946 11.046-7.431 18.285-7.431 79.231 0.388 152.474 25.609 219.707 75.711 67.239 50.102 122.382 118.574 165.426 205.424l9.719-5.706c6.096-3.809 14.863-8.090 26.287-12.849 11.424-4.767 24.664-10.007 39.713-15.713 15.049-5.718 31.513-9.903 49.424-12.567 17.903-2.68 36.288-4.289 55.144-4.866 18.858-0.566 38.192 2.186 58.006 8.296 19.806 6.096 38.664 14.959 56.555 26.575 17.903 11.61 35.245 28.479 52 50.577 16.774 22.080 31.245 48.361 43.437 78.841-25.164 20.181-51.253 34.941-78.287 44.27z" />
<glyph unicode="&#xe964;" glyph-name="tree-with-many-leaves" d="M587.476 40.371c-56.769 0.98-85.83 28.522-100.606 76.035-12.393 39.993-18.384 82.134-27.6 123.206-7.716 34.62 1.696 55.298 37.797 70.123 60.809 24.894 108.459 67.633 144.629 129.912-60.063-39.15-187.779-135.314-189.769-110.116 0 86.467 48.788 187.377 75.172 271.511-139.393-190.985-173.758-318.113-72.878-540.737-23.021 5.638-33.738-4.432-39.513 0.667-55.151 48.69-111.597-9.726-168.219-49.994-7.118-5.040-4.912-39.062-2.334-39.601 55.632-12.942 111.528-27.708 168.121-32.346 59.191-4.893 119.529-3.824 178.494 2.686 49.053 5.363 96.762 22.472 152.394 36.101-46.435 65.946-104.616 61.789-155.688 62.554zM682.297 523.114c-30.934-18.070-49.249-47.239-48.651-72.927 0.137-7.922 65.76 21.668 69.721 14.942 4.765-8.157-51.739-51.524-43.141-55.691 22.002-10.697 54.21-8.118 83.34 8.795 40.327 23.58 74.29 113.705 74.29 113.705s-95.164 14.717-135.559-8.824zM639.824 574.255c16.482-7.971 40.601-6.040 62.407 6.628 30.198 17.629 55.632 85.144 55.632 85.144s-71.27 11.040-101.527-6.559c-23.149-13.609-36.915-35.414-36.444-54.661 0.137-5.951 49.259 16.237 52.21 11.158 3.569-6.108-38.787-38.552-32.277-41.709zM782.423 649.672c-17.511-10.265-27.845-26.757-27.512-41.287 0.069-4.51 37.17 12.226 39.425 8.403 2.677-4.598-29.355-29.159-24.423-31.502 12.481-6.040 30.698-4.598 47.18 5.020 22.815 13.305 42.042 64.319 42.042 64.319s-53.828 8.383-76.712-4.951zM833.897 492.484c-1.422-2.618 24.963-5.128 25.031-8.020 0-3.49-25.963-6.991-23.953-9.913 5.040-7.432 15.835-12.481 28.247-12.423 17.188 0.186 44.425 22.747 44.425 22.747s-27.649 22.178-44.837 22.002c-13.207-0.137-24.423-6.157-28.914-14.393zM900.863 606.826c-14.021-2.637-24.757-11.060-27.983-20.756-1.020-3.020 27.512-0.726 28.11-3.814 0.667-3.638-26.306-12.295-23.649-15.050 6.775-6.912 19.227-10.334 32.346-7.873 18.217 3.412 43.013 32.532 43.013 32.532s-33.571 18.394-51.837 14.962zM547.405 489.533c12.442-6.089 30.689-4.618 47.19 5 22.815 13.334 42.003 64.358 42.003 64.358s-53.808 8.354-76.692-4.971c-17.521-10.285-27.855-26.767-27.502-41.297 0.069-4.491 37.16 12.236 39.434 8.422 2.696-4.618-29.306-29.149-24.433-31.512zM636.264 708.736c1.481-4.226 31.542 23.217 34.905 20.227 4.020-3.5-18.864-36.758-13.491-37.444 13.756-1.961 30.669 5.049 43.356 19.345 17.58 19.678 20.060 74.104 20.060 74.104s-53.818-8.628-71.398-28.375c-13.501-15.227-18.256-34.12-13.432-47.857zM811.288 728.973c3.951-3.5-18.864-36.758-13.491-37.444 13.717-1.961 30.669 5.049 43.356 19.345 17.511 19.678 19.992 74.104 19.992 74.104s-53.818-8.658-71.398-28.404c-13.423-15.197-18.178-34.12-13.423-47.866 1.471-4.196 31.6 23.247 34.963 20.266zM638.951 822.803c4.020-3.539-18.864-36.758-13.521-37.513 13.746-1.932 30.698 5.118 43.386 19.345 17.58 19.707 20.060 74.163 20.060 74.163s-53.818-8.658-71.398-28.404c-13.521-15.168-18.246-34.091-13.423-47.827 1.481-4.187 31.542 23.227 34.895 20.237zM524.246 807.38c5.442-2.677 8.589 51.847 14.501 52.141 7.177 0.382 16.393-52.984 22.296-48.572 14.903 10.991 24.561 33.64 23.286 59.191-1.539 35.336-50.21 89.86-50.21 89.86s-43.513-58.789-41.817-94.252c1.294-27.179 14.531-49.749 31.944-58.367zM488.832 694.215c4.432-1.079-2.098 39.121 2.196 40.297 5.089 1.412 20.472-35.905 23.933-31.826 9.207 10.52 12.481 28.453 7.599 46.876-6.912 25.482-51.131 57.377-51.131 57.377s-22.159-49.798-15.217-75.31c5.295-19.609 18.531-33.934 32.62-37.415zM251 659.33c19.207-6.559 38.454-3.569 49.268 6.177 3.304 3.039-33.669 20.109-32.228 24.325 1.696 5.049 41.209-3.088 39.729 2.128-3.5 13.442-16.56 26.286-34.571 32.414-25.051 8.589-76.173-10.315-76.173-10.315s28.953-46.209 53.975-54.73zM125.255 709.824c19.207-6.53 38.434-3.569 49.268 6.187 3.255 3.020-33.64 20.1-32.228 24.355 1.677 5.049 41.189-3.157 39.778 2.098-3.608 13.403-16.629 26.218-34.591 32.395-25.051 8.559-76.182-10.305-76.182-10.305s28.875-46.2 53.955-54.73zM249.588 457.471c2.167 3.981-38.366 7.873-38.366 12.364-0.137 5.334 39.925 10.687 36.826 15.080-7.805 11.471-24.355 19.315-43.415 19.178-26.453-0.167-68.515-34.885-68.515-34.885s42.533-34.052 68.986-33.856c20.345 0.216 37.522 9.334 44.484 22.119zM192.623 591.168c2.167 3.902-38.385 7.854-38.444 12.295-0.069 5.344 39.925 10.687 36.836 15.080-7.805 11.54-24.296 19.345-43.366 19.207-26.453-0.186-68.515-34.885-68.515-34.885s42.542-34.061 69.005-33.807c20.266 0.147 37.513 9.324 44.484 22.11zM291.964 759.789c4.491 0.382-14.707 36.248-11.011 38.787 4.363 3.069 31.002-27.316 32.954-22.266 5.304 12.883 2.549 30.963-8.108 46.768-14.844 21.874-66.976 37.552-66.976 37.552s-4.765-54.259 10.148-76.104c11.305-16.835 28.483-26.12 42.993-24.737zM412.787 759.789c4.51 0.382-14.697 36.248-10.991 38.787 4.363 3.069 30.983-27.316 32.944-22.266 5.216 12.883 2.549 30.963-8.099 46.768-14.844 21.874-66.976 37.552-66.976 37.552s-4.765-54.259 10.128-76.104c11.324-16.835 28.502-26.12 42.993-24.737zM529.648 687.763c-4.912-26.404 2.755-51.122 17.59-63.319 4.579-3.775 19.845 47.896 25.61 46.837 6.912-1.304 3.892-54.602 10.501-51.72 16.815 7.246 31.11 26.777 35.767 51.602 6.471 34.326-28.12 97.694-28.12 97.694s-54.916-46.7-61.348-81.094zM383.863 635.034c15.638-21.855 38.719-33.571 57.799-31.336 5.834 0.647-20.756 47.592-15.903 50.984 5.687 4.089 41.944-35.111 44.494-28.336 6.461 17.119 2.265 40.954-12.344 61.534-20.266 28.434-89.772 47.582-89.772 47.582s-4.569-71.937 15.727-100.429zM315.112 494.533c34.424-3.843 65.632 8.187 79.918 28.453 4.5 6.197-63.495 21.178-62.681 28.728 0.99 9.079 69.927 10.001 65.632 18.246-10.854 20.962-37.375 37.581-69.79 41.268-44.758 5.089-123.147-45.229-123.147-45.229s65.221-66.397 110.067-71.466zM398.060 441.205c-7.373 14.276-25.365 25.512-47.376 28.041-30.483 3.471-83.761-30.806-83.761-30.806s44.278-45.101 74.829-48.514c23.365-2.657 44.552 5.51 54.288 19.335 3.020 4.196-43.15 14.423-42.611 19.521 0.637 6.138 47.513 6.785 44.631 12.423z" />
<glyph unicode="&#xe965;" glyph-name="idea" d="M864.088 501.958c-10.63 2.974-21.674-3.228-24.654-13.864-28.714-102.51-105.224-186.71-204.662-225.234-7.7-2.984-12.774-10.392-12.774-18.65v-28.21h-90v180.904c5.358-0.588 10.708-0.896 16.030-0.896 38.244 0 75.078 15.026 103.098 43.046 36.992 36.992 51.334 89.334 38.364 140.012-1.812 7.080-7.338 12.606-14.418 14.418-50.678 12.966-103.020-1.374-140.012-38.362-9.076-9.076-16.782-19.082-23.062-29.756-6.28 10.674-13.984 20.678-23.060 29.756-36.992 36.992-89.34 51.334-140.014 38.364-7.080-1.812-12.606-7.338-14.418-14.418-12.968-50.68 1.374-103.022 38.364-140.014 28.024-28.022 64.852-43.046 103.098-43.046 5.322 0 10.672 0.31 16.030 0.898v-180.906h-90v28.208c0 8.258-5.076 15.666-12.774 18.65-129.928 50.338-217.224 177.788-217.224 317.142 0 187.476 152.524 340 340 340 157.358 0 293.21-106.626 330.368-259.292 2.612-10.734 13.438-17.316 24.162-14.704 10.732 2.612 17.316 13.43 14.704 24.162-19.784 81.282-66.924 154.9-132.74 207.292-67.834 54-149.614 82.542-236.494 82.542-209.534 0-380-170.468-380-380 0-78.174 23.56-153.264 68.134-217.156 40.9-58.626 96.662-104.068 161.866-132.070v-18.216c-23.278-8.256-40-30.486-40-56.56s16.722-48.304 40-56.56v-13.438c0-82.71 67.29-150 150-150s150 67.29 150 150v13.44c23.278 8.256 40 30.486 40 56.56s-16.722 48.304-40 56.56v18.222c104.88 45.142 185.1 136.376 215.954 246.522 2.978 10.636-3.228 21.674-13.866 24.654zM563.344 526.836c23.978 23.976 56.822 34.864 89.772 30.272 4.592-32.952-6.298-65.796-30.272-89.77-23.976-23.976-56.814-34.864-89.77-30.272-4.596 32.954 6.296 65.796 30.27 89.77zM490.926 437.066c-32.958-4.59-65.796 6.298-89.77 30.272-23.976 23.976-34.868 56.818-30.272 89.77 32.948 4.596 65.794-6.296 89.77-30.27 23.976-23.976 34.868-56.818 30.272-89.772zM622 86c0-60.654-49.346-110-110-110s-110 49.346-110 110v10h220v-10zM642 136h-260c-11.028 0-20 8.972-20 20s8.972 20 20 20h260c11.028 0 20-8.972 20-20s-8.972-20-20-20zM872 600c-11.046 0-20-8.954-20-20l-0.004-1.72c-0.052-11.046 8.858-20.042 19.904-20.096 0.034 0 0.066 0 0.098 0 11 0 19.944 8.89 19.998 19.904l0.004 1.912c0 11.046-8.954 20-20 20zM511.98 852c-11.046 0-20-8.954-20-20v-131.486c0-11.046 8.954-20 20-20s20 8.954 20 20v131.486c0 11.046-8.954 20-20 20zM424.486 714.66l-38.152 38.12c-7.814 7.81-20.476 7.804-28.284-0.010s-7.802-20.478 0.010-28.284l38.152-38.122c3.906-3.902 9.020-5.852 14.136-5.852 5.122 0 10.242 1.956 14.148 5.864 7.808 7.814 7.802 20.478-0.010 28.284zM665.938 752.742c-7.814 7.808-20.478 7.8-28.284-0.012l-40.56-40.594c-7.808-7.814-7.802-20.478 0.010-28.284 3.906-3.902 9.020-5.852 14.136-5.852 5.122 0 10.242 1.956 14.148 5.864l40.56 40.594c7.808 7.814 7.802 20.478-0.010 28.284zM526.4 635.98c-3.72 3.72-8.88 5.86-14.14 5.86s-10.42-2.14-14.14-5.86c-3.74-3.72-5.86-8.88-5.86-14.14 0-5.28 2.12-10.42 5.86-14.14 3.72-3.74 8.88-5.86 14.14-5.86s10.42 2.12 14.14 5.86c3.72 3.72 5.86 8.86 5.86 14.14 0 5.26-2.14 10.42-5.86 14.14z" />
</font>
</defs>
</svg>
