<svg fill="#FFFFFF" version="1.1" id="Layer_1" xmlns="http://www.w3.org/2000/svg" xmlns:xlink="http://www.w3.org/1999/xlink" x="0px" y="0px" width="20px" height="18px" viewBox="0 0 20 18" style="enable-background:new 0 0 20 18;" xml:space="preserve">
	<g>
		<path class="st0" d="M13.1,13.9c0,2.3,1.6,4.1,3.5,4.1c1.9,0,3.5-1.9,3.5-4.1c0-1.9-1.5-4.8-3.5-7.9C14.5,9,13.1,12,13.1,13.9z"/>
		<path class="st0" d="M2,4h16c1.1,0,2-0.9,2-2s-0.9-2-2-2H2C0.9,0,0,0.9,0,2S0.9,4,2,4z"/>
		<path class="st0" d="M11,8H1C0.4,8,0,8.4,0,9s0.4,1,1,1h10c0.6,0,1-0.4,1-1S11.6,8,11,8z"/>
		<path class="st0" d="M10.5,14h-10C0.2,14,0,14.2,0,14.5S0.2,15,0.5,15h10c0.3,0,0.5-0.2,0.5-0.5S10.8,14,10.5,14z"/>
	</g>
</svg>
