<svg fill="#FFFFFF" version="1.1" id="Layer_1" xmlns="http://www.w3.org/2000/svg" xmlns:xlink="http://www.w3.org/1999/xlink" x="0px" y="0px" width="18px" height="18px" viewBox="0 0 18 18" style="enable-background:new 0 0 18 18;" xml:space="preserve">
	<g>
		<path class="st0" d="M9.6,17H1V1h16v6c0,0.3,0.2,0.5,0.5,0.5S18,7.3,18,7V0.5C18,0.2,17.8,0,17.5,0h-17C0.2,0,0,0.2,0,0.5v17
			C0,17.8,0.2,18,0.5,18h9.1c0.3,0,0.5-0.2,0.5-0.5S9.8,17,9.6,17z"/>
		<path class="st0" d="M14.5,5.8c-2,3.1-3.5,6.1-3.5,8c0,2.3,1.6,4.2,3.5,4.2c1.9,0,3.5-1.9,3.5-4.2C18,11.9,16.5,8.9,14.5,5.8z"/>
	</g>
</svg>
