<svg fill="#FFFFFF" version="1.1" id="Layer_1" xmlns="http://www.w3.org/2000/svg" xmlns:xlink="http://www.w3.org/1999/xlink" x="0px" y="0px" width="18px" height="18px" viewBox="0 0 18 18" style="enable-background:new 0 0 18 18;" xml:space="preserve">
	<g>
		<path class="st0" d="M1,0C0.4,0,0,0.4,0,1v16c0,0.6,0.4,1,1,1s1-0.4,1-1V1C2,0.4,1.6,0,1,0z"/>
		<path class="st0" d="M9,0C8.4,0,8,0.4,8,1v16c0,0.6,0.4,1,1,1s1-0.4,1-1V1C10,0.4,9.6,0,9,0z"/>
		<path class="st0" d="M17,0c-0.6,0-1,0.4-1,1v16c0,0.6,0.4,1,1,1s1-0.4,1-1V1C18,0.4,17.6,0,17,0z"/>
	</g>
</svg>
