<svg fill="#FFFFFF" version="1.1" id="Layer_1" xmlns="http://www.w3.org/2000/svg" xmlns:xlink="http://www.w3.org/1999/xlink" x="0px" y="0px" width="18px" height="18px" viewBox="0 0 18 18" style="enable-background:new 0 0 18 18;" xml:space="preserve">
	<g>
		<path class="st0" d="M17.5,12c-0.3,0-0.5,0.2-0.5,0.5V17h-4.5c-0.3,0-0.5,0.2-0.5,0.5s0.2,0.5,0.5,0.5h5c0.3,0,0.5-0.2,0.5-0.5v-5
			C18,12.2,17.8,12,17.5,12z"/>
		<path class="st0" d="M18,1.5C18,0.7,17.3,0,16.5,0C6.8,0,0,6.8,0,16.5C0,17.3,0.7,18,1.5,18S3,17.3,3,16.5C3,8.6,8.6,3,16.5,3
			C17.3,3,18,2.3,18,1.5z"/>
	</g>
</svg>
