<svg fill="#FFFFFF" version="1.1" id="Layer_1" xmlns="http://www.w3.org/2000/svg" xmlns:xlink="http://www.w3.org/1999/xlink" x="0px" y="0px" width="25px" height="20px" viewBox="0 0 25 20" style="enable-background:new 0 0 25 20;" xml:space="preserve">
	<g>
		<path class="st0" d="M23,16H2c-1.1,0-2-0.9-2-2V2c0-1.1,0.9-2,2-2h21c1.1,0,2,0.9,2,2v12C25,15.1,24.1,16,23,16z"/>
		<g>
			<g>
				<path class="st0" d="M17,20H8c-0.6,0-1-0.4-1-1s0.4-1,1-1h9c0.6,0,1,0.4,1,1S17.6,20,17,20z"/>
			</g>
			<rect x="11.5" y="13.4" class="st0" width="2" height="5.6"/>
		</g>
	</g>
</svg>
