<svg fill="#FFFFFF" version="1.1" id="Layer_1" xmlns="http://www.w3.org/2000/svg" xmlns:xlink="http://www.w3.org/1999/xlink" x="0px" y="0px" width="20px" height="11px" viewBox="0 0 20 11" style="enable-background:new 0 0 20 11;" xml:space="preserve">
	<g>
		<path class="fillwhite" d="M9.9,9.8C9.9,9.6,9.8,9.4,9.8,9l0.1-9H8.5l-6,8.3C2.1,8.9,1.7,9.4,1.4,9.7c-0.4,0.3-0.7,0.5-1.1,0.5L0,11h3.9l0.2-0.7H3.7
			c-0.7,0-1-0.2-1-0.5c0-0.2,0.1-0.5,0.4-0.9l1.2-1.7h3.5v1.4c0,0.5,0,0.8-0.1,1.1C7.5,9.9,7.4,10,7.1,10.1c-0.2,0.1-0.5,0.1-1,0.1
			L6,11h5l0.2-0.7c-0.4,0-0.6,0-0.8-0.1C10.2,10.1,10,10,9.9,9.8z M7.8,6.4H4.9l3-4.2L7.8,6.4z"/>
		<path class="fillwhite" d="M19.6,9.7c-0.2,0-0.4-0.1-0.4-0.2c0-0.2-0.1-0.4-0.1-0.7V4.4c0-0.5-0.1-0.9-0.3-1.2c-0.2-0.3-0.4-0.6-0.7-0.7
			c-0.3-0.2-0.7-0.3-1-0.3C16.7,2,16.3,2,15.9,2c-0.5,0-0.9,0.1-1.4,0.2c-0.4,0.1-0.8,0.3-1.1,0.5c-0.3,0.2-0.6,0.5-0.8,0.9
			s-0.3,0.8-0.3,1.3h1.4c0-0.6,0.2-1.1,0.6-1.3c0.4-0.2,0.9-0.3,1.5-0.3c0.2,0,0.4,0,0.7,0c0.2,0,0.4,0.1,0.6,0.2
			c0.2,0.1,0.3,0.2,0.4,0.4c0.1,0.2,0.2,0.4,0.2,0.7c0,0.3-0.1,0.5-0.2,0.6c-0.2,0.1-0.4,0.2-0.6,0.3c-0.3,0.1-0.6,0.1-0.9,0.2
			c-0.3,0-0.7,0.1-1.1,0.2c-0.4,0.1-0.7,0.2-1.1,0.2s-0.7,0.2-0.9,0.4c-0.3,0.2-0.5,0.4-0.7,0.8c-0.2,0.3-0.2,0.7-0.2,1.2
			c0,0.4,0.1,0.8,0.2,1.1c0.1,0.3,0.4,0.6,0.6,0.7c0.3,0.2,0.6,0.3,0.9,0.4C14,11,14.4,11,14.8,11c0.6,0,1.2-0.1,1.7-0.3s1-0.5,1.4-1
			c0,0.5,0.1,0.8,0.3,1S18.6,11,19,11c0.4,0,0.8-0.1,1-0.2V9.7C19.8,9.7,19.7,9.7,19.6,9.7z M17.7,7.8c0,0.2,0,0.4-0.1,0.6
			s-0.3,0.4-0.5,0.6c-0.2,0.2-0.5,0.4-0.8,0.5s-0.7,0.2-1.2,0.2c-0.2,0-0.4,0-0.6-0.1c-0.2,0-0.4-0.1-0.5-0.2s-0.3-0.2-0.4-0.4
			c-0.1-0.2-0.1-0.4-0.1-0.6c0-0.4,0.1-0.6,0.2-0.8c0.2-0.2,0.4-0.4,0.6-0.5c0.3-0.1,0.5-0.2,0.9-0.2c0.3,0,0.6-0.1,1-0.1
			c0.3,0,0.6-0.1,0.9-0.1c0.3-0.1,0.5-0.2,0.7-0.3V7.8z"/>
	</g>
</svg>
