<svg fill="#FFFFFF" version="1.1" id="Layer_1" xmlns="http://www.w3.org/2000/svg" xmlns:xlink="http://www.w3.org/1999/xlink" x="0px" y="0px" width="18.8px" height="11px" viewBox="0 0 18.8 11" style="enable-background:new 0 0 18.8 11;" xml:space="preserve">
	<g>
		<path class="fillwhite" d="M9.9,9.8C9.9,9.6,9.8,9.4,9.8,9l0.1-9H8.5l-6,8.3C2.1,8.9,1.7,9.4,1.4,9.7c-0.4,0.3-0.7,0.5-1.1,0.5L0,11h3.9l0.2-0.7H3.7
			c-0.7,0-1-0.2-1-0.5c0-0.2,0.1-0.5,0.4-0.9l1.2-1.7h3.5v1.4c0,0.5,0,0.8-0.1,1.1C7.5,9.9,7.4,10,7.1,10.1c-0.2,0.1-0.5,0.1-1,0.1
			L6,11h5l0.2-0.7c-0.4,0-0.6,0-0.8-0.1C10.2,10.1,10,10,9.9,9.8z M7.8,6.4H4.9l3-4.2L7.8,6.4z"/>
		<path class="fillwhite" d="M18.3,10.5c-0.1,0-0.2-0.1-0.3-0.2c-0.1-0.1-0.1-0.3-0.1-0.5L18,4h-0.9l-3.8,5.3c-0.3,0.4-0.5,0.7-0.8,0.9
			c-0.2,0.2-0.5,0.3-0.7,0.3L11.7,11h2.5l0.1-0.5H14c-0.4,0-0.6-0.1-0.6-0.3c0-0.1,0.1-0.3,0.3-0.6l0.8-1.1h2.2v0.9
			c0,0.3,0,0.5-0.1,0.7c-0.1,0.2-0.2,0.3-0.3,0.3c-0.1,0.1-0.4,0.1-0.6,0.1L15.5,11h3.2l0.1-0.5C18.6,10.5,18.4,10.5,18.3,10.5z
			 M16.6,8.1h-1.9l1.9-2.7L16.6,8.1z"/>
	</g>
</svg>
