<svg fill="#FFFFFF" version="1.1" id="Layer_1" xmlns="http://www.w3.org/2000/svg" xmlns:xlink="http://www.w3.org/1999/xlink" x="0px" y="0px" width="4.5px" height="10px" viewBox="0 0 4.5 10" style="enable-background:new 0 0 4.5 10;" xml:space="preserve">
	<path style="stroke:#fff;" d="M3.1,0.9c0.1-0.2,0.2-0.4,0.3-0.5c0.2-0.1,0.5-0.1,1-0.1h0.2V0H0v0.3h0.2c0.5,0,0.8,0,1,0.1S1.4,0.7,1.5,1
	c0,0.2,0.1,0.7,0.1,1.5v4.9c0,0.8,0,1.4-0.1,1.6S1.3,9.4,1.2,9.5C1,9.6,0.7,9.7,0.3,9.7H0V10h4.5V9.7H4.2c-0.4,0-0.8-0.1-0.9-0.2
	C3.2,9.4,3.1,9.2,3,8.9C3,8.7,3,8.2,3,7.4V2.5C3,1.7,3,1.1,3.1,0.9z"/>
</svg>
