<svg fill="#FFFFFF" version="1.1" id="Layer_1" xmlns="http://www.w3.org/2000/svg" xmlns:xlink="http://www.w3.org/1999/xlink" x="0px" y="0px" width="6.8px" height="10px" viewBox="0 0 6.8 10" style="enable-background:new 0 0 6.8 10;" xml:space="preserve">
	<path style="stroke:#fff;" d="M2.9,0L2.8,0.3h0.3C3.7,0.3,4,0.5,4,0.9C4,1,3.9,1.3,3.8,1.8L1.9,8.2C1.7,8.6,1.6,9,1.5,9.1C1.5,9.3,1.3,9.4,1.1,9.5
	C0.9,9.6,0.6,9.7,0.3,9.7H0.1L0,10h4.2l0.1-0.3H4c-0.3,0-0.5-0.1-0.7-0.2C3.1,9.4,3,9.2,3,9C3,8.8,3,8.5,3.2,8.1L5,2
	c0.2-0.6,0.3-1,0.4-1.1s0.2-0.3,0.4-0.3s0.4-0.1,0.6-0.1h0.2L6.8,0H2.9z"/>
</svg>
