<svg fill="#FFFFFF" version="1.1" id="Layer_1" xmlns="http://www.w3.org/2000/svg" xmlns:xlink="http://www.w3.org/1999/xlink" x="0px" y="0px" width="18.2px" height="19px" viewBox="0 0 18.2 19" style="enable-background:new 0 0 18.2 19;" xml:space="preserve">
	<g>
		<path class="st0" d="M9.9,9.4c0.4-0.8,0.8-1.6,1.4-2.3L8.2,0H7.8L3.3,10.8C3,11.5,2.8,12,2.7,12.1c-0.5,1.2-0.9,2-1.2,2.4
			c-0.3,0.4-0.8,0.6-1.5,0.7v0.5h4.6v-0.5c-0.5,0-0.9-0.1-1.2-0.4c-0.3-0.2-0.5-0.6-0.5-1.1c0-0.4,0.3-1.4,0.9-2.8l0.4-1h5.4
			C9.7,9.8,9.7,9.7,9.9,9.4L4.4,9.5l2.7-6.6L9.9,9.4z"/>
		<path class="st0" d="M14.1,4.6c-2.3,3.6-4.1,7.2-4.1,9.4c0,2.7,1.8,4.9,4.1,4.9c2.2,0,4.1-2.2,4.1-4.9C18.2,11.8,16.4,8.3,14.1,4.6
			z"/>
	</g>
</svg>
