<svg fill="#FFFFFF" version="1.1" id="Layer_1" xmlns="http://www.w3.org/2000/svg" xmlns:xlink="http://www.w3.org/1999/xlink" x="0px" y="0px" width="20px" height="10.5px" viewBox="0 0 20 10.5" style="enable-background:new 0 0 20 10.5;" xml:space="preserve">
	<g>
		<path class="fillwhite" d="M9.7,9.4C9.6,9.2,9.6,8.9,9.6,8.6L9.7,0H8.1L2.4,7.9C2,8.5,1.6,9,1.3,9.3C0.9,9.6,0.6,9.8,0.2,9.8L0,10.5h3.8L4,9.8H3.5
			c-0.6,0-1-0.2-1-0.5c0-0.2,0.1-0.5,0.4-0.9l1.1-1.6h3.3v1.3c0,0.5,0,0.8-0.1,1C7.2,9.4,7,9.6,6.8,9.7S6.3,9.8,5.9,9.8l-0.2,0.7h5
			l0.2-0.7c-0.3,0-0.6,0-0.8-0.1C9.9,9.6,9.8,9.5,9.7,9.4z M7.4,6.1H4.6l2.9-4L7.4,6.1z"/>
		<path class="fillwhite" d="M19,10c-0.2-0.1-0.3-0.3-0.3-0.7l0-0.9L19.2,0H19l-5.3,7.9c-0.6,0.9-1.1,1.5-1.4,1.8s-0.7,0.5-1.2,0.5L11,10.5h3.6l0.1-0.4
			l-0.3,0c-0.7,0-1.1-0.3-1.1-0.8c0-0.1,0-0.3,0.1-0.4c0.1-0.1,0.3-0.4,0.6-0.9l0.9-1.4h3l-0.1,1.7c0,0.6-0.1,0.9-0.1,1.1
			c0,0.2-0.1,0.4-0.3,0.5c-0.2,0.1-0.6,0.2-1.1,0.2l-0.1,0.4h3.7l0.1-0.4C19.6,10.1,19.2,10.1,19,10z M17.9,6.3h-2.7l2.9-4.4
			L17.9,6.3z"/>
	</g>
</svg>
