<svg fill="#FFFFFF" version="1.1" id="Layer_1" xmlns="http://www.w3.org/2000/svg" xmlns:xlink="http://www.w3.org/1999/xlink" x="0px" y="0px" width="20px" height="18px" viewBox="0 0 20 18" style="enable-background:new 0 0 20 18;" xml:space="preserve">
	<g>
		<path class="st0" d="M1,0C0.4,0,0,0.4,0,1v16c0,0.6,0.4,1,1,1s1-0.4,1-1V1C2,0.4,1.6,0,1,0z"/>
		<path class="st0" d="M19,0c-0.6,0-1,0.4-1,1v16c0,0.6,0.4,1,1,1s1-0.4,1-1V1C20,0.4,19.6,0,19,0z"/>
		<polygon class="st0" points="12,8 8,8 8,6 5.3,8 5.3,8 5.3,8.1 4,9 5.3,9.9 5.3,10 5.3,10 8,12 8,10 12,10 12,12 16,9 12,6 	"/>
	</g>
</svg>
