<?xml version="1.0" encoding="utf-8"?>
<!-- Generator: Adobe Illustrator 21.1.0, SVG Export Plug-In . SVG Version: 6.00 Build 0)  -->
<svg version="1.1" id="Layer_1" xmlns="http://www.w3.org/2000/svg" xmlns:xlink="http://www.w3.org/1999/xlink" x="0px" y="0px"
	 width="11.7px" height="16.3px" viewBox="0 0 11.7 16.3" style="enable-background:new 0 0 11.7 16.3;" xml:space="preserve">
	<style>
		.st0{
			fill: #bb84ff;
		}
	</style>
	<path class="st0" d="M11.7,11.8L5.1,4.7v9.7l2.5-1l0.7,2.9l2.4-0.9l-1.5-2.6L11.7,11.8z M5.6,2.5v-2C5.6,0.2,5.4,0,5.1,0S4.6,0.2,4.6,0.5v2
	C4.6,2.8,4.8,3,5.1,3S5.6,2.8,5.6,2.5z M7.2,5.1c0,0.3,0.2,0.5,0.5,0.5h2c0.3,0,0.5-0.2,0.5-0.5S10,4.6,9.7,4.6h-2
	C7.4,4.6,7.2,4.8,7.2,5.1z M3,5.1c0-0.3-0.2-0.5-0.5-0.5h-2C0.2,4.6,0,4.8,0,5.1s0.2,0.5,0.5,0.5h2C2.8,5.6,3,5.4,3,5.1z M2.8,3.8
	C2.9,3.9,3,3.9,3.1,3.9c0.1,0,0.3-0.1,0.4-0.2c0.2-0.2,0.2-0.5,0-0.7L2,1.7c-0.2-0.2-0.5-0.2-0.7,0C1.1,2,1.1,2.3,1.3,2.5L2.8,3.8z
	 M7.1,3.9c0.1,0,0.2,0,0.3-0.1l1.5-1.3C9.1,2.3,9.1,2,9,1.7c-0.2-0.2-0.5-0.2-0.7,0L6.7,3c-0.2,0.2-0.2,0.5,0,0.7
	C6.8,3.8,6.9,3.9,7.1,3.9z M3,6.7L1.7,8.2c-0.2,0.2-0.2,0.5,0,0.7C1.8,9,1.9,9,2,9C2.2,9,2.3,9,2.4,8.9l1.3-1.5
	c0.2-0.2,0.2-0.5,0-0.7C3.5,6.5,3.2,6.5,3,6.7z"/>
</svg>
