<svg fill="#FFFFFF" version="1.1" xmlns="http://www.w3.org/2000/svg" xmlns:xlink="http://www.w3.org/1999/xlink" x="0px" y="0px" width="17px" height="20px" viewBox="0 0 17 20" style="enable-background:new 0 0 17 20;" xml:space="preserve">
	<g>
		<path class="st0" d="M14.4,11c-1.5,2.3-2.6,4.5-2.6,5.9c0,1.7,1.2,3.1,2.6,3.1c1.4,0,2.6-1.4,2.6-3.1C17,15.5,15.9,13.3,14.4,11z"
			/>
		<path class="st0" d="M13.8,8.7l-8-5.2C5.7,3.4,5.6,3.4,5.4,3.3V2.5C5.4,1.7,6.1,1,6.9,1s1.5,0.7,1.5,1.5v1.2c0,0.3,0.2,0.5,0.5,0.5
			S9.4,4,9.4,3.7V2.5C9.4,1.1,8.3,0,6.9,0C5.6,0,4.4,1.1,4.4,2.5v1.4l-4.1,6.3c-0.5,0.8-0.3,1.9,0.5,2.5l4.5,3
			c0.8,0.5,1.9,0.3,2.5-0.5l3-4.6c0.2-0.2,0.4-0.4,0.7-0.4l2-0.3C14.1,9.8,14.3,9,13.8,8.7z"/>
	</g>
</svg>
