<?xml version="1.0" encoding="utf-8"?>
<!-- Generator: Adobe Illustrator 22.0.1, SVG Export Plug-In . SVG Version: 6.00 Build 0)  -->
<svg version="1.1" id="Layer_1" xmlns="http://www.w3.org/2000/svg" xmlns:xlink="http://www.w3.org/1999/xlink" x="0px" y="0px"
	 width="70px" height="70px" viewBox="0 0 70 70" style="enable-background:new 0 0 70 70;" xml:space="preserve">
<style type="text/css">
	.st0{fill:#F8F8F8;}
	.st1{fill:#B9B2EE;}
	.st2{fill:#948EEA;}
	.st3{fill:#989898;}
	.st4{fill:#D3D0F9;}
</style>
<g>
	<path class="st0" d="M67,70H3c-1.7,0-3-1.3-3-3V3c0-1.7,1.3-3,3-3h64c1.7,0,3,1.3,3,3v64C70,68.7,68.7,70,67,70z"/>
	<path class="st1" d="M37.4,25.6H6.3c-0.8,0-1.5-0.4-1.5-1V8c0-0.6,0.7-1,1.5-1h31.1c0.8,0,1.5,0.4,1.5,1v16.6
		C38.9,25.1,38.2,25.6,37.4,25.6z"/>
	<path class="st2" d="M14.7,16.5l-9.9,4.7v3.3c0,0.6,0.7,1,1.5,1h31.1c0.8,0,1.5-0.4,1.5-1V10.9L21,19.5L14.7,16.5z"/>
	<path class="st1" d="M55,34H44c-0.6,0-1,0.4-1,1v2c0,0.6,0.4,1,1,1h11c0.6,0,1-0.4,1-1v-2C56,34.4,55.6,34,55,34z"/>
	<g>
		<rect x="43" y="7" class="st3" width="17" height="2"/>
		<rect x="43" y="26" class="st3" width="5" height="2"/>
		<rect x="43" y="30" class="st3" width="5" height="2"/>
		<rect x="43" y="14" class="st3" width="19" height="1"/>
		<rect x="43" y="16" class="st3" width="19" height="1"/>
		<rect x="43" y="18" class="st3" width="19" height="1"/>
		<rect x="43" y="20" class="st3" width="19" height="1"/>
		<rect x="43" y="22" class="st3" width="12.1" height="1"/>
		<rect x="43" y="10" class="st3" width="7" height="2"/>
	</g>
	<circle class="st4" cx="22" cy="12" r="3"/>
	<path class="st1" d="M37.4,46H6.3c-0.8,0-1.5-0.4-1.5-1V28.4c0-0.6,0.7-1,1.5-1h31.1c0.8,0,1.5,0.4,1.5,1V45
		C38.9,45.5,38.2,46,37.4,46z"/>
	<path class="st2" d="M14.7,36.9l-9.9,4.7V45c0,0.6,0.7,1,1.5,1h31.1c0.8,0,1.5-0.4,1.5-1V31.4L21,39.9L14.7,36.9z"/>
	<circle class="st4" cx="22" cy="32.4" r="3"/>
	<path class="st1" d="M37.4,66.4H6.3c-0.8,0-1.5-0.4-1.5-1V48.8c0-0.6,0.7-1,1.5-1h31.1c0.8,0,1.5,0.4,1.5,1v16.6
		C38.9,66,38.2,66.4,37.4,66.4z"/>
	<path class="st2" d="M14.7,57.3l-9.9,4.7v3.3c0,0.6,0.7,1,1.5,1h31.1c0.8,0,1.5-0.4,1.5-1V51.8L21,60.3L14.7,57.3z"/>
	<circle class="st4" cx="22" cy="52.8" r="3"/>
</g>
</svg>
