<?xml version="1.0" encoding="utf-8"?>
<!-- Generator: Adobe Illustrator 21.1.0, SVG Export Plug-In . SVG Version: 6.00 Build 0)  -->
<svg version="1.1" id="Layer_3" xmlns="http://www.w3.org/2000/svg" xmlns:xlink="http://www.w3.org/1999/xlink" x="0px" y="0px"
	 width="70px" height="70px" viewBox="0 0 70 70" style="enable-background:new 0 0 70 70;" xml:space="preserve">
<style type="text/css">
	.st0{fill:#F9F9F9;}
	.st1{fill:#999999;}
	.st2{fill:#BAB4ED;}
	.st3{fill:#D4D2F9;}
	.st4{fill:#9591E8;}
</style>
<path class="st0" d="M67,70H3c-1.7,0-3-1.3-3-3V3c0-1.7,1.3-3,3-3h64c1.7,0,3,1.3,3,3v64C70,68.7,68.7,70,67,70z"/>
<g>
	<rect x="7" y="53" class="st1" width="8.7" height="1"/>
	<rect x="7" y="58" class="st1" width="55" height="1"/>
	<rect x="7" y="56" class="st1" width="55" height="1"/>
	<rect x="7" y="60" class="st1" width="55" height="1"/>
	<rect x="7" y="62" class="st1" width="19" height="1"/>
	<rect x="19" y="53" class="st1" width="9.6" height="1"/>
	<rect x="32" y="53" class="st1" width="9.6" height="1"/>
</g>
<g>
	<rect x="26" y="37" class="st1" width="17" height="2"/>
	<path class="st2" d="M40,50H29c-0.6,0-1-0.4-1-1v-2c0-0.6,0.4-1,1-1h11c0.6,0,1,0.4,1,1v2C41,49.6,40.6,50,40,50z"/>
	<rect x="25" y="40" class="st1" width="19" height="1"/>
	<rect x="28.4" y="42" class="st1" width="12.1" height="1"/>
</g>
<path class="st2" d="M70,33.9H0V3c0-1.7,1.3-3,3-3h64c1.7,0,3,1.3,3,3V33.9z"/>
<circle class="st3" cx="12" cy="13" r="3"/>
<g>
	<g>
		<path class="st4" d="M68.8,0.6L34.6,19.9L24.4,12L0,25.4v8.5h70V3C70,2,69.5,1.2,68.8,0.6z"/>
	</g>
</g>
</svg>
