<?xml version="1.0" encoding="utf-8"?>
<!-- Generator: Adobe Illustrator 21.1.0, SVG Export Plug-In . SVG Version: 6.00 Build 0)  -->
<svg version="1.1" id="Layer_3" xmlns="http://www.w3.org/2000/svg" xmlns:xlink="http://www.w3.org/1999/xlink" x="0px" y="0px"
	 width="70px" height="70px" viewBox="0 0 70 70" style="enable-background:new 0 0 70 70;" xml:space="preserve">
<style type="text/css">
	.st0{fill:#F9F9F9;}
	.st1{fill:#999999;}
	.st2{fill:#BAB4ED;}
	.st3{fill:#9591E8;}
	.st4{fill:#D4D2F9;}
</style>
<path class="st0" d="M67,70H3c-1.7,0-3-1.3-3-3V3c0-1.7,1.3-3,3-3h64c1.7,0,3,1.3,3,3v64C70,68.7,68.7,70,67,70z"/>
<rect x="7" y="37" class="st1" width="17" height="2"/>
<rect x="7" y="51" class="st1" width="5" height="2"/>
<path class="st2" d="M19,59H8c-0.6,0-1-0.4-1-1v-2c0-0.6,0.4-1,1-1h11c0.6,0,1,0.4,1,1v2C20,58.6,19.5,59,19,59z"/>
<rect x="7" y="44" class="st1" width="30" height="1"/>
<rect x="7" y="46" class="st1" width="30" height="1"/>
<rect x="7" y="48" class="st1" width="30" height="1"/>
<rect x="7" y="40" class="st1" width="7" height="2"/>
<rect x="7" y="61" class="st1" width="2" height="1"/>
<rect x="10" y="61" class="st1" width="2" height="1"/>
<rect x="13" y="61" class="st1" width="2" height="1"/>
<rect x="43" y="37" class="st1" width="7" height="1"/>
<rect x="61" y="37" class="st1" width="1" height="1"/>
<rect x="43" y="45" class="st1" width="7" height="1"/>
<rect x="61" y="45" class="st1" width="1" height="1"/>
<rect x="43" y="47" class="st1" width="7" height="1"/>
<rect x="61" y="47" class="st1" width="1" height="1"/>
<rect x="43" y="42" class="st1" width="19" height="1"/>
<rect x="43" y="40" class="st1" width="19" height="1"/>
<g>
	<path class="st2" d="M61,34H8c-0.6,0-1-0.4-1-1V6c0-0.6,0.4-1,1-1h53c0.6,0,1,0.4,1,1v27C62,33.6,61.6,34,61,34z"/>
	<path class="st3" d="M36.2,23.9l-5.4-5.4L7,30.4V33c0,0.6,0.4,1,1,1h53c0.6,0,1-0.4,1-1V9.2L36.2,23.9z"/>
	<circle class="st4" cx="15" cy="13" r="3"/>
</g>
</svg>
