<?xml version="1.0" encoding="utf-8"?>
<!-- Generator: Adobe Illustrator 21.1.0, SVG Export Plug-In . SVG Version: 6.00 Build 0)  -->
<svg version="1.1" id="Layer_3" xmlns="http://www.w3.org/2000/svg" xmlns:xlink="http://www.w3.org/1999/xlink" x="0px" y="0px"
	 width="70px" height="70px" viewBox="0 0 70 70" style="enable-background:new 0 0 70 70;" xml:space="preserve">
<style type="text/css">
	.st0{fill:#F9F9F9;}
	.st1{fill:#BAB4ED;}
	.st2{fill:#9591E8;}
	.st3{fill:#999999;}
	.st4{fill:#FFFFFF;}
	.st5{fill:#D4D2F9;}
</style>
<path class="st0" d="M67,70H3c-1.7,0-3-1.3-3-3V3c0-1.7,1.3-3,3-3h64c1.7,0,3,1.3,3,3v64C70,68.7,68.7,70,67,70z"/>
<path class="st1" d="M70,48.2H0V3c0-1.7,1.3-3,3-3h64c1.7,0,3,1.3,3,3V48.2z"/>
<polygon class="st2" points="34.6,27.4 24.4,19.5 0,32.9 0,48.1 70,48.1 70,7.5 "/>
<rect x="7" y="52" class="st3" width="8.7" height="1"/>
<rect x="7" y="57" class="st3" width="55" height="1"/>
<rect x="7" y="55" class="st3" width="55" height="1"/>
<rect x="7" y="59" class="st3" width="55" height="1"/>
<rect x="7" y="61" class="st3" width="19" height="1"/>
<rect x="19" y="52" class="st3" width="9.6" height="1"/>
<rect x="32" y="52" class="st3" width="9.6" height="1"/>
<rect x="41.2" y="4" class="st4" width="22.5" height="39"/>
<circle class="st5" cx="12" cy="13" r="3"/>
<rect x="43" y="7" class="st3" width="17" height="2"/>
<rect x="43" y="26" class="st3" width="5" height="2"/>
<rect x="43" y="30" class="st3" width="5" height="2"/>
<path class="st1" d="M55,38H44c-0.6,0-1-0.4-1-1v-2c0-0.6,0.4-1,1-1h11c0.6,0,1,0.4,1,1v2C56,37.6,55.6,38,55,38z"/>
<rect x="43" y="14" class="st3" width="19" height="1"/>
<rect x="43" y="16" class="st3" width="19" height="1"/>
<rect x="43" y="18" class="st3" width="19" height="1"/>
<rect x="43" y="20" class="st3" width="19" height="1"/>
<rect x="43" y="22" class="st3" width="12.1" height="1"/>
<rect x="43" y="10" class="st3" width="7" height="2"/>
<rect x="43" y="40" class="st3" width="2" height="1"/>
<rect x="46" y="40" class="st3" width="2" height="1"/>
<rect x="49" y="40" class="st3" width="2" height="1"/>
</svg>
