<?xml version="1.0" encoding="utf-8"?>
<!-- Generator: Adobe Illustrator 21.1.0, SVG Export Plug-In . SVG Version: 6.00 Build 0)  -->
<svg version="1.1" id="Layer_3" xmlns="http://www.w3.org/2000/svg" xmlns:xlink="http://www.w3.org/1999/xlink" x="0px" y="0px"
	 width="70px" height="70px" viewBox="0 0 70 70" style="enable-background:new 0 0 70 70;" xml:space="preserve">
<style type="text/css">
	.st0{fill:#F9F9F9;}
	.st1{fill:#BAB4ED;}
	.st2{fill:#999999;}
	.st3{fill:#9591E8;}
	.st4{fill:#D4D2F9;}
</style>
<path class="st0" d="M67,70H3c-1.7,0-3-1.3-3-3V3c0-1.7,1.3-3,3-3h64c1.7,0,3,1.3,3,3v64C70,68.7,68.7,70,67,70z"/>
<path class="st1" d="M37.9,45.6H8c-0.6,0-1-0.4-1-1V8c0-0.6,0.4-1,1-1h29.9c0.6,0,1,0.4,1,1v36.6C38.9,45.1,38.4,45.6,37.9,45.6z"/>
<rect x="43" y="7" class="st2" width="17" height="2"/>
<rect x="43" y="26" class="st2" width="5" height="2"/>
<rect x="43" y="30" class="st2" width="5" height="2"/>
<path class="st1" d="M55,38H44c-0.6,0-1-0.4-1-1v-2c0-0.6,0.4-1,1-1h11c0.6,0,1,0.4,1,1v2C56,37.6,55.6,38,55,38z"/>
<rect x="43" y="45" class="st2" width="7" height="1"/>
<rect x="61" y="45" class="st2" width="1" height="1"/>
<rect x="43" y="53" class="st2" width="7" height="1"/>
<rect x="61" y="53" class="st2" width="1" height="1"/>
<rect x="43" y="55" class="st2" width="7" height="1"/>
<rect x="61" y="55" class="st2" width="1" height="1"/>
<rect x="43" y="50" class="st2" width="19" height="1"/>
<rect x="43" y="48" class="st2" width="19" height="1"/>
<rect x="43" y="14" class="st2" width="19" height="1"/>
<rect x="43" y="16" class="st2" width="19" height="1"/>
<rect x="43" y="18" class="st2" width="19" height="1"/>
<rect x="43" y="20" class="st2" width="19" height="1"/>
<rect x="43" y="22" class="st2" width="12.1" height="1"/>
<rect x="43" y="10" class="st2" width="7" height="2"/>
<rect x="43" y="40" class="st2" width="2" height="1"/>
<rect x="46" y="40" class="st2" width="2" height="1"/>
<rect x="49" y="40" class="st2" width="2" height="1"/>
<path class="st3" d="M23.5,29.8l-5.4-5.4L7,35.5v9.1c0,0.6,0.4,1,1,1h29.9c0.6,0,1-0.4,1-1V14.4L23.5,29.8z"/>
<circle class="st4" cx="16" cy="16" r="3"/>
</svg>
