<svg fill="#FFFFFF" version="1.1" id="Layer_1" xmlns="http://www.w3.org/2000/svg" xmlns:xlink="http://www.w3.org/1999/xlink" x="0px" y="0px" width="18px" height="18px" viewBox="0 0 18 18" style="enable-background:new 0 0 18 18;" xml:space="preserve">
	<g>
		<path class="st0" d="M1,2h16c0.6,0,1-0.4,1-1c0-0.6-0.4-1-1-1H1C0.4,0,0,0.4,0,1C0,1.6,0.4,2,1,2z"/>
		<path class="st0" d="M17,8H1C0.4,8,0,8.4,0,9s0.4,1,1,1h16c0.6,0,1-0.4,1-1S17.6,8,17,8z"/>
		<path class="st0" d="M17,16H1c-0.6,0-1,0.4-1,1s0.4,1,1,1h16c0.6,0,1-0.4,1-1S17.6,16,17,16z"/>
	</g>
</svg>
