<svg xmlns="http://www.w3.org/2000/svg" viewBox="0 0 512 512">
	<style>
		.st0{
			fill: #fff;
		}
	</style>
	<path class="st0" d="M80.111 25.6c-29.028 0-48.023 20.547-48.023 47.545 0 26.424 18.459 47.584 46.893 47.584h.573c29.601 0 47.999-21.16 47.999-47.584-.543-26.998-18.398-47.545-47.442-47.545zm-48.111 128h96v320.99h-96v-320.99zm323.631-7.822c-58.274 0-84.318 32.947-98.883 55.996v1.094h-.726c.211-.357.485-.713.726-1.094v-48.031h-96.748c1.477 31.819 0 320.847 0 320.847h96.748v-171.241c0-10.129.742-20.207 3.633-27.468 7.928-20.224 25.965-41.185 56.305-41.185 39.705 0 67.576 31.057 67.576 76.611v163.283h97.717v-176.313c0-104.053-54.123-152.499-126.347-152.499z"/>
</svg>