<svg xmlns="http://www.w3.org/2000/svg" viewBox="0 0 512 512">
	<style>
		.st0{
			fill: #fff;
		}
	</style>
	<path class="st0" d="M454.058 213.822c28.724-2.382 48.193-15.423 55.683-33.132-10.365 6.373-42.524 13.301-60.269 6.681-.877-4.162-1.835-8.132-2.792-11.706-13.527-49.679-59.846-89.698-108.382-84.865 3.916-1.589 7.914-3.053 11.885-4.388 5.325-1.923 36.678-7.003 31.749-18.079-4.176-9.728-42.471 7.352-49.672 9.597 9.501-3.581 25.26-9.735 26.93-20.667-14.569 1.991-28.901 8.885-39.937 18.908 3.998-4.293 7.01-9.536 7.666-15.171-38.91 24.85-61.624 74.932-80.025 123.523-14.438-13.972-27.239-25.008-38.712-31.114-32.209-17.285-70.722-35.303-131.156-57.736-1.862 19.996 9.899 46.591 43.723 64.273-7.325-.986-20.736 1.219-31.462 3.773 4.382 22.912 18.627 41.805 57.251 50.918-17.642 1.163-26.767 5.182-35.036 13.841 8.043 15.923 27.656 34.709 62.931 30.82-39.225 16.935-15.998 48.234 15.93 43.565-54.444 56.244-140.294 52.123-189.596 5.08 128.712 175.385 408.493 103.724 450.21-65.225 31.23.261 49.605-10.823 60.994-23.05-17.99 3.053-44.072-.095-57.914-5.846z"/>
</svg>