<svg xmlns="http://www.w3.org/2000/svg" viewBox="0 0 512 512">
	<style>
		.st0{
			fill: #fff;
		}
	</style>
	<path class="st0" d="M267.702-6.4c-135.514 0-203.839 100.197-203.839 183.724 0 50.583 18.579 95.597 58.402 112.372 6.536 2.749 12.381.091 14.279-7.361 1.325-5.164 4.431-18.204 5.83-23.624 1.913-7.363 1.162-9.944-4.107-16.38-11.483-13.968-18.829-32.064-18.829-57.659 0-74.344 53.927-140.883 140.431-140.883 76.583 0 118.657 48.276 118.657 112.707 0 84.802-36.392 156.383-90.42 156.383-29.827 0-52.161-25.445-45.006-56.672 8.569-37.255 25.175-77.456 25.175-104.356 0-24.062-12.529-44.147-38.469-44.147-30.504 0-55 32.548-55 76.119 0 27.782 9.097 46.546 9.097 46.546s-31.209 136.374-36.686 160.269c-10.894 47.563-1.635 105.874-.853 111.765.456 3.476 4.814 4.327 6.786 1.67 2.813-3.781 39.131-50.022 51.483-96.234 3.489-13.087 20.066-80.841 20.066-80.841 9.906 19.492 38.866 36.663 69.664 36.663 91.686 0 153.886-86.2 153.886-201.577 0-87.232-71.651-168.483-180.547-168.483z"/>
</svg>