<svg xmlns="http://www.w3.org/2000/svg" viewBox="0 0 512 512">
	<style>
		.st0{
			fill: #fff;
		}
	</style>
	<path class="st0" d="M344.858 357.11c-2.61-1.683-5.649-2.71-8.844-2.71-2.582 0-5.264.728-7.66 2.296-22.552 13.495-49.098 20.884-75.465 20.884-19.778 0-39.427-4.18-57.236-12.924l-.093-.057-.085-.029c-2.682-1.099-5.742-3.438-9.079-5.649-1.698-1.099-3.474-2.198-5.442-2.997-1.933-.827-4.079-1.411-6.384-1.411-1.911 0-3.923.442-5.884 1.326l-.314.129h.014c-3.102 1.169-5.528 3.338-7.097 5.906-1.625 2.668-2.424 5.735-2.424 8.815 0 2.781.656 5.549 2.011 8.074 1.291 2.353 3.267 4.464 5.856 5.849 25.454 17.173 55.424 24.947 85.522 24.919 27.131 0 54.404-6.291 78.71-17.702l.129-.086.115-.072c3.209-1.883 7.474-3.594 11.483-6.09 1.983-1.242 3.922-2.712 5.578-4.608 1.683-1.897 3.009-4.221 3.764-6.974v-.029c.315-1.213.471-2.397.471-3.58 0-2.282-.558-4.408-1.483-6.333-1.37-2.867-3.581-5.249-6.163-6.947zm-153.491-75.51c0-17.673-14.327-32-32-32s-32.001 14.327-32.001 32c0 17.674 14.327 32 32.001 32s32-14.326 32-32zm160.229-32c-17.674 0-32.001 14.327-32.001 32s14.327 32 32.001 32c17.672 0 32-14.326 32-32s-14.328-32-32-32zm160.185-21.306v-.091c-1.185-14.981-7.289-28.797-16.348-39.717-9.058-10.892-21.092-18.987-34.394-22.562v-.014l-.228-.046-.213-.06h-.029c-5.631-1.519-11.432-2.305-17.25-2.305-13.058 0-26.106 3.856-37.137 11.625-3 1.897-5.66 4.104-8.158 6.25-1.158-.657-2.43-1.389-3.115-1.837l-.529-.309h-.043c-36.351-22.122-77.82-32.568-119.047-35.425.231-17.574 1.703-35.274 9.06-50.413v-.046c4.844-10.309 14.834-17.481 25.592-18.579h.015c2.072-.219 4.144-.332 6.228-.332 8.043-.009 16.435-.227 24.656.711.927 31.364 26.71 56.597 58.294 56.597 32.168 0 58.338-26.17 58.338-58.338s-26.17-58.339-58.338-58.339c-20.945 0-39.339 11.1-49.63 27.72-10.971-1.237-22.346-.625-33.404-.625-6.66 0-13.334.627-19.963 1.989l-.099.021-.057.032c-17.42 4.496-32.039 17.496-40.454 34.2-10.117 20.097-12.667 43.065-13.032 65.013-41.868 2.571-84.829 11.497-121.781 34.656-2.428.967-4.573 2.207-6.558 3.302-6.102-5.124-12.947-8.835-19.82-11.888l-.043-.014-.043-.031c-8.073-3.28-16.569-4.731-25.042-4.731-1.779 0-3.573.077-5.33.204h-.715c-16.869 0-32.594 8.239-44.105 20.829-11.517 12.6-18.927 29.688-18.941 47.738v.203c.535 12.893 4.715 25.063 11.318 35.477 6.158 9.705 14.482 17.824 24.092 23.522-.664 5.229-1.008 10.49-1.008 15.795 0 23.31 6.309 46.497 17.776 66.269 21.326 37.067 56.099 62.356 92.588 78.272h.029l.015.031c35.188 14.906 72.919 22.115 110.671 22.115 25.32 0 50.642-3.219 75.221-9.524l.029-.029h.014c46.069-12.44 91.68-37.096 121.388-78.892h.027c16.09-22.312 25.32-50.142 25.32-78.468 0-5.26-.356-10.521-1-15.751 9.861-5.715 18.42-14.103 24.637-24.156 6.644-10.717 10.644-23.362 10.644-36.529 0-1.172-.027-2.35-.099-3.522zm-112.646-180.229c13.971 0 25.338 11.367 25.338 25.339s-11.366 25.339-25.338 25.339-25.338-11.367-25.338-25.339 11.366-25.339 25.338-25.339zm-354.054 210.243c-2.944-2.827-5.552-6.109-7.538-9.675-2.694-4.815-4.281-10.106-4.281-15.577 0-.674.014-1.391.079-2.117l.014-.06v-.091c.307-8.858 4.365-16.908 10.496-22.864 6.115-5.978 14.282-9.712 22.363-9.947l.135-.014h.135c.943-.106 1.894-.174 2.843-.174 5.624-.03 11.325 1.913 16.834 4.626-16.868 15.448-31.615 34.011-41.081 55.893zm398.497 67.493h-.015v.029c-2.642 14.421-8.558 27.663-16.662 39.514-8.056 11.836-18.262 22.281-29.264 30.868l-.014.031c-34.567 27.164-77.336 40.481-119.931 44.198-7.101.544-14.305.785-21.464.785-42.274 0-84.88-9.553-121.875-31.394-2.901-1.724-5.73-3.508-8.545-5.322-12.733-8.556-24.849-19.017-34.71-31.276-9.881-12.244-17.511-26.287-21.405-42.037h-.029c-1.793-7.031-2.651-14.24-2.651-21.437 0-19.59 6.352-39.241 17.226-55.084v-.044c21.427-31.698 54.85-52.174 89.51-63.814 26.685-8.692 54.529-13.069 82.393-13.069 20.75 0 41.51 2.449 61.774 7.317 6.774 1.632 13.49 3.546 20.149 5.707l.228.091c34.666 11.504 67.99 32.114 89.465 63.738 10.776 15.766 17.422 35.387 17.422 54.871 0 5.488-.517 10.928-1.601 16.326zm31.207-77.614c-1.971 3.877-4.615 7.354-7.688 10.196-9.601-21.986-24.435-40.647-41.353-56.187 5.315-2.834 11.318-4.263 17.348-4.263 6.658 0 13.289 1.724 18.961 5.109 5.688 3.364 10.39 8.299 13.39 14.837l.014.061.057.045c2.258 4.406 3.287 9.123 3.287 13.846 0 5.615-1.457 11.3-4.015 16.357z"/>
</svg>