<svg xmlns="http://www.w3.org/2000/svg" viewBox="0 0 512 512">
	<style>
		.st0{
			fill: #fff;
		}
	</style>
	<path class="st0" d="M416.146 153.104v-95.504h-32.146v95.504h-95.504v32.146h95.504v95.504h32.145v-95.504h95.504v-32.146h-95.504zm-128.75-95.504h-137.717c-61.745 0-119.869 48.332-119.869 102.524 0 55.364 42.105 100.843 104.909 100.843 4.385 0 8.613.296 12.772 0-4.074 7.794-6.982 16.803-6.982 25.925 0 12.17 5.192 22.583 12.545 31.46-5.303-.046-10.783.067-16.386.402-37.307 2.236-68.08 13.344-91.121 32.581-18.765 12.586-32.751 28.749-39.977 46.265-3.605 8.154-5.538 16.62-5.538 25.14l.018.82-.018.983c0 49.744 64.534 80.863 141.013 80.863 87.197 0 135.337-49.447 135.337-99.192l-.003-.363.003-.213-.019-1.478c-.007-.672-.012-1.346-.026-2.009-.012-.532-.029-1.058-.047-1.583-1.108-36.537-13.435-59.361-48.048-83.887-12.469-8.782-36.267-30.231-36.267-42.81 0-14.769 4.221-22.041 26.439-39.409 22.782-17.79 38.893-39.309 38.893-68.424 0-34.65-15.439-76.049-44.392-76.049h43.671l30.81-32.391zm-85.642 298.246c19.347 13.333 32.891 24.081 37.486 41.754v.001l.056.203c1.069 4.522 1.645 9.18 1.666 13.935-.325 37.181-26.35 66.116-100.199 66.116-52.713 0-90.82-31.053-91.028-68.414.005-.43.008-.863.025-1.292l.002-.051c.114-3.006.505-5.969 1.15-8.881.127-.54.241-1.082.388-1.617 1.008-3.942 2.502-7.774 4.399-11.478 18.146-21.163 45.655-33.045 82.107-35.377 28.12-1.799 53.515 2.818 63.95 5.101zm-47.105-107.993c-35.475-1.059-69.194-39.691-75.335-86.271-6.121-46.61 17.663-82.276 53.154-81.203 35.483 1.06 69.215 38.435 75.336 85.043 6.121 46.583-17.685 83.517-53.154 82.43z"/>
</svg>