<?xml version="1.0" encoding="utf-8"?>
<!-- Generator: Adobe Illustrator 19.0.0, SVG Export Plug-In . SVG Version: 6.00 Build 0)  -->
<svg version="1.1" id="Layer_1" xmlns="http://www.w3.org/2000/svg" xmlns:xlink="http://www.w3.org/1999/xlink" x="0px" y="0px"
	 viewBox="-505 265 12 10" style="enable-background:new -505 265 12 10;" xml:space="preserve">
<style type="text/css">
	.st0{fill:#FFFFFF;}
</style>
<path class="st0" d="M-502,271.7v-5.8c0-0.5-0.4-0.8-1-0.8s-1,0.3-1,0.8v5.8c0,0.5,0.4,0.8,1,0.8S-502,272.2-502,271.7z M-500,265.8
	v8.3c0,0.5,0.4,0.8,1,0.8s1-0.3,1-0.8v-8.3c0-0.5-0.4-0.8-1-0.8S-500,265.3-500,265.8z M-496,265.8v2.5c0,0.5,0.4,0.8,1,0.8
	s1-0.3,1-0.8v-2.5c0-0.5-0.4-0.8-1-0.8S-496,265.3-496,265.8z"/>
</svg>
