<svg fill="#FFFFFF" version="1.1" id="Layer_1" xmlns="http://www.w3.org/2000/svg" xmlns:xlink="http://www.w3.org/1999/xlink" x="0px" y="0px" width="18px" height="20px" viewBox="0 0 18 20" style="enable-background:new 0 0 18 20;" xml:space="preserve">
	<g>
		<path class="st0" d="M1,2h16c0.6,0,1-0.4,1-1s-0.4-1-1-1H1C0.4,0,0,0.4,0,1S0.4,2,1,2z"/>
		<path class="st0" d="M17,18H1c-0.6,0-1,0.4-1,1s0.4,1,1,1h16c0.6,0,1-0.4,1-1S17.6,18,17,18z"/>
		<polygon class="st0" points="12,8 10,5.3 10,5.3 9.9,5.3 9,4 8.1,5.3 8,5.3 8,5.3 6,8 8,8 8,12 6,12 9,16 12,12 10,12 10,8"/>
	</g>
</svg>
