<svg id="Layer_1" fill="#555" xmlns="http://www.w3.org/2000/svg" x="0px" y="0px" width="20px" height="20px" viewBox="0 0 20 20" style="enable-background:new 0 0 20 20;">
  <path d="M18.5,0h-17C0.7,0,0,0.7,0,1.5v17C0,19.3,0.7,20,1.5,20h17c0.8,0,1.5-0.7,1.5-1.5v-17C20,0.7,19.3,0,18.5,0z
	 M19,18.5c0,0.3-0.2,0.5-0.5,0.5h-17C1.2,19,1,18.8,1,18.5v-17C1,1.2,1.2,1,1.5,1h17C18.8,1,19,1.2,19,1.5V18.5z M9,3H4
	C3.4,3,3,3.4,3,4v7c0,0.6,0.4,1,1,1h5c0.6,0,1-0.4,1-1V4C10,3.4,9.6,3,9,3z M17,4h-5v1h5V4z M17,6h-5v1h5V6z M15,8h-3v1h3V8z M16,13
	h-3c-0.6,0-1,0.4-1,1c0,0.6,0.4,1,1,1h3c0.6,0,1-0.4,1-1C17,13.4,16.6,13,16,13z"/>
</svg>
