<svg id="Layer_1" fill="#555" xmlns="http://www.w3.org/2000/svg" x="0px" y="0px" width="19.9px" height="17.5px" viewBox="0 0 19.9 17.5" style="enable-background:new 0 0 19.9 17.5;">
  <path d="M14.4,14.5c-0.8,0-1.5,0.7-1.5,1.5s0.7,1.5,1.5,1.5s1.5-0.7,1.5-1.5S15.2,14.5,14.4,14.5z M8.4,14.5
	c-0.8,0-1.5,0.7-1.5,1.5s0.7,1.5,1.5,1.5s1.5-0.7,1.5-1.5S9.2,14.5,8.4,14.5z M19.8,2.2C19.7,2.1,19.5,2,19.4,2H6.9
	C6.6,2,6.4,2.2,6.4,2.5S6.6,3,6.9,3h11.9l-1.3,8.5H5.8L3.5,0.4C3.4,0.2,3.2,0,3,0H0.5C0.2,0,0,0.2,0,0.5S0.2,1,0.5,1h2.1l2.3,11.1
	c0,0.2,0.3,0.4,0.5,0.4h12.5c0.2,0,0.5-0.2,0.5-0.4l1.5-9.5C19.9,2.4,19.9,2.3,19.8,2.2z"/>
</svg>
