<svg id="Layer_1" fill="#555" xmlns="http://www.w3.org/2000/svg" x="0px" y="0px" width="20px" height="19px" viewBox="0 0 20 19" style="enable-background:new 0 0 20 19;">
  <path d="M7.5,0h-6C0.7,0,0,0.7,0,1.5v2C0,4.3,0.7,5,1.5,5h6C8.3,5,9,4.3,9,3.5v-2C9,0.7,8.3,0,7.5,0z M8,3.5
	C8,3.8,7.8,4,7.5,4h-6C1.2,4,1,3.8,1,3.5v-2C1,1.2,1.2,1,1.5,1h6C7.8,1,8,1.2,8,1.5V3.5z M18.5,0h-6C11.7,0,11,0.7,11,1.5v2
	C11,4.3,11.7,5,12.5,5h6C19.3,5,20,4.3,20,3.5v-2C20,0.7,19.3,0,18.5,0z M19,3.5C19,3.8,18.8,4,18.5,4h-6C12.2,4,12,3.8,12,3.5v-2
	C12,1.2,12.2,1,12.5,1h6C18.8,1,19,1.2,19,1.5V3.5z M7.5,7h-6C0.7,7,0,7.7,0,8.5v2C0,11.3,0.7,12,1.5,12h6C8.3,12,9,11.3,9,10.5v-2
	C9,7.7,8.3,7,7.5,7z M8,10.5C8,10.8,7.8,11,7.5,11h-6C1.2,11,1,10.8,1,10.5v-2C1,8.2,1.2,8,1.5,8h6C7.8,8,8,8.2,8,8.5V10.5z M18.5,7
	h-6C11.7,7,11,7.7,11,8.5v2c0,0.8,0.7,1.5,1.5,1.5h6c0.8,0,1.5-0.7,1.5-1.5v-2C20,7.7,19.3,7,18.5,7z M19,10.5
	c0,0.3-0.2,0.5-0.5,0.5h-6c-0.3,0-0.5-0.2-0.5-0.5v-2C12,8.2,12.2,8,12.5,8h6C18.8,8,19,8.2,19,8.5V10.5z M7.5,14h-6
	C0.7,14,0,14.7,0,15.5v2C0,18.3,0.7,19,1.5,19h6C8.3,19,9,18.3,9,17.5v-2C9,14.7,8.3,14,7.5,14z M8,17.5C8,17.8,7.8,18,7.5,18h-6
	C1.2,18,1,17.8,1,17.5v-2C1,15.2,1.2,15,1.5,15h6C7.8,15,8,15.2,8,15.5V17.5z M18.5,14h-6c-0.8,0-1.5,0.7-1.5,1.5v2
	c0,0.8,0.7,1.5,1.5,1.5h6c0.8,0,1.5-0.7,1.5-1.5v-2C20,14.7,19.3,14,18.5,14z M19,17.5c0,0.3-0.2,0.5-0.5,0.5h-6
	c-0.3,0-0.5-0.2-0.5-0.5v-2c0-0.3,0.2-0.5,0.5-0.5h6c0.3,0,0.5,0.2,0.5,0.5V17.5z"/>
</svg>
