<svg id="Layer_1" fill="#555" xmlns="http://www.w3.org/2000/svg" x="0px" y="0px" width="19px" height="19.5px" viewBox="0 0 19 19.5" style="enable-background:new 0 0 19 19.5;">
  <path d="M19,5V4.5c0-0.2-0.1-0.4-0.3-0.5l-9-4C9.6,0,9.4,0,9.3,0L4.8,2c0,0,0,0,0,0L0.3,4C0.1,4.1,0,4.3,0,4.5V15
	c0,0.2,0.1,0.4,0.3,0.5l9,4c0,0,0,0,0,0c0.1,0,0.1,0,0.2,0s0.1,0,0.2,0c0,0,0,0,0,0l9-4c0.2-0.1,0.3-0.3,0.3-0.5V5C19,5,19,5,19,5z
	 M9.5,1l8.3,3.7l-3.4,1.5L6.2,2.5L9.5,1z M9.5,8.5L1.2,4.8L5,3.1l8.2,3.7L9.5,8.5z M1,5.8l8,3.6v8.9l-8-3.6V5.8z M10,18.2V9.3l8-3.6
	v8.9L10,18.2z"/>
</svg>
