<?xml version="1.0" encoding="iso-8859-1"?>
<!-- Generator: Adobe Illustrator 19.0.0, SVG Export Plug-In . SVG Version: 6.00 Build 0)  -->
<svg version="1.1" id="Capa_1" xmlns="http://www.w3.org/2000/svg" xmlns:xlink="http://www.w3.org/1999/xlink" x="0px" y="0px"
	 viewBox="-144 236.8 321.2 321.2" style="enable-background:new -144 236.8 321.2 321.2;" xml:space="preserve">
<g>
	<g>
		<path style="fill:#555555;" d="M162.4,550l-24-223.6c-0.4-3.6-3.6-6.4-7.2-6.4H86.8v-13.6c0-38.4-31.2-69.6-69.6-69.6
			s-69.6,31.2-69.6,69.6V320H-98c-3.6,0-6.8,2.8-7.2,6.4l-24,223.6c-0.4,2,0.4,4,1.6,5.6c1.2,1.6,3.2,2.4,5.2,2.4h278
			c2,0,4-0.8,5.2-2.4C162,554,162.8,552,162.4,550z M79.6,360.4c3.6,0,6.4,2.8,6.4,6.4s-2.8,6.4-6.4,6.4c-3.6,0-6.4-2.8-6.4-6.4
			C73.2,363.2,76,360.4,79.6,360.4z M-38,306.4c0-30.4,24.8-55.2,55.2-55.2s55.2,24.8,55.2,55.2V320H-38V306.4z M-45.2,360.4
			c3.6,0,6.4,2.8,6.4,6.4s-2.8,6.4-6.4,6.4s-6.4-2.8-6.4-6.4C-51.6,363.2-48.8,360.4-45.2,360.4z M-114,543.2L-91.6,334h39.2v13.2
			c-8,2.8-13.6,10.4-13.6,19.2c0,11.2,9.2,20.4,20.4,20.4s20.4-9.2,20.4-20.4c0-8.8-5.6-16.4-13.6-19.2V334H71.6v13.2
			c-8,2.8-13.6,10.4-13.6,19.2c0,11.2,9.2,20.4,20.4,20.4s20.4-9.2,20.4-20.4c0-8.8-5.6-16.4-13.6-19.2V334H126l22.4,209.2H-114z"/>
	</g>
</g>
</svg>
